<?xml version="1.0" encoding="UTF-8"?>
<svg version="1.1" xmlns="http://www.w3.org/2000/svg" width="32" height="32">
<path d="M0 0 C3.96 0 7.92 0 12 0 C12.33 0.99 12.66 1.98 13 3 C14.98 3 16.96 3 19 3 C20.125 4.75 20.125 4.75 21 7 C20.3417714 8.3375191 19.67382765 9.67027126 19 11 C18.56663472 13.29550325 18.56663472 13.29550325 18.40234375 15.73046875 C18.28342773 17.05788086 18.28342773 17.05788086 18.16210938 18.41210938 C18.08798828 19.32798828 18.01386719 20.24386719 17.9375 21.1875 C17.78386143 23.01465621 17.62651313 24.8415056 17.46484375 26.66796875 C17.399021 27.47516357 17.33319824 28.2823584 17.26538086 29.11401367 C17 31 17 31 16 32 C14.52347336 32.09880797 13.04232764 32.13079245 11.5625 32.1328125 C10.22058594 32.13474609 10.22058594 32.13474609 8.8515625 32.13671875 C7.91054688 32.13285156 6.96953125 32.12898438 6 32.125 C4.58847656 32.13080078 4.58847656 32.13080078 3.1484375 32.13671875 C2.25382813 32.13542969 1.35921875 32.13414063 0.4375 32.1328125 C-0.38878906 32.13168457 -1.21507812 32.13055664 -2.06640625 32.12939453 C-4 32 -4 32 -5 31 C-5.20240885 29.57364137 -5.34683026 28.13893177 -5.46484375 26.703125 C-5.54283203 25.8265625 -5.62082031 24.95 -5.70117188 24.046875 C-5.85738551 22.19813184 -6.01107602 20.34917357 -6.16210938 18.5 C-6.63501488 13.1538716 -6.63501488 13.1538716 -8.19140625 8.046875 C-8.45824219 7.37140625 -8.72507812 6.6959375 -9 6 C-8.34 5.01 -7.68 4.02 -7 3 C-3.875 2.8125 -3.875 2.8125 -1 3 C-0.67 2.01 -0.34 1.02 0 0 Z M2 2 C2 2.33 2 2.66 2 3 C4.64 3 7.28 3 10 3 C10 2.67 10 2.34 10 2 C7.36 2 4.72 2 2 2 Z M-5 6 C-5 6.33 -5 6.66 -5 7 C2.26 7 9.52 7 17 7 C17 6.67 17 6.34 17 6 C9.74 6 2.48 6 -5 6 Z M-4 10 C-3.34 16.6 -2.68 23.2 -2 30 C3.28 30 8.56 30 14 30 C14.66 23.4 15.32 16.8 16 10 C9.4 10 2.8 10 -4 10 Z " fill="#FFFFFF" transform="translate(10,0)"/>
<path d="M0 0 C0.99 0 1.98 0 3 0 C3.09945415 6.11090483 3.0712828 11.97403427 2 18 C1.01 17.67 0.02 17.34 -1 17 C-0.67 11.39 -0.34 5.78 0 0 Z " fill="#FFFFFF" transform="translate(20,11)"/>
<path d="M0 0 C0.99 0 1.98 0 3 0 C3.33 5.61 3.66 11.22 4 17 C3.01 17.33 2.02 17.66 1 18 C-0.0712828 11.97403427 -0.09945415 6.11090483 0 0 Z " fill="#FFFFFF" transform="translate(9,11)"/>
<path d="M0 0 C0.66 0 1.32 0 2 0 C2 5.94 2 11.88 2 18 C1.34 18 0.68 18 0 18 C0 12.06 0 6.12 0 0 Z " fill="#FFFFFF" transform="translate(15,11)"/>
</svg>
