<?xml version="1.0" encoding="UTF-8"?>
<svg version="1.1" xmlns="http://www.w3.org/2000/svg" width="32" height="32">
<path d="M0 0 C0.99 0 1.98 0 3 0 C3 1.65 3 3.3 3 5 C4.28777344 4.98839844 5.57554688 4.97679687 6.90234375 4.96484375 C8.58072772 4.9554673 10.25911326 4.94636695 11.9375 4.9375 C13.21270508 4.92493164 13.21270508 4.92493164 14.51367188 4.91210938 C15.32255859 4.90888672 16.13144531 4.90566406 16.96484375 4.90234375 C17.7137085 4.89710693 18.46257324 4.89187012 19.23413086 4.88647461 C21 5 21 5 22 6 C22.08631874 7.34267413 22.10706473 8.68974322 22.09765625 10.03515625 C22.09443359 10.84404297 22.09121094 11.65292969 22.08789062 12.48632812 C22.07951172 13.33646484 22.07113281 14.18660156 22.0625 15.0625 C22.05798828 15.91650391 22.05347656 16.77050781 22.04882812 17.65039062 C22.03700373 19.76695663 22.01906769 21.88348685 22 24 C23.65 24 25.3 24 27 24 C27 24.99 27 25.98 27 27 C25.35 27 23.7 27 22 27 C22 28.65 22 30.3 22 32 C21.01 32 20.02 32 19 32 C19 30.35 19 28.7 19 27 C17.71222656 27.01160156 16.42445312 27.02320312 15.09765625 27.03515625 C13.41927228 27.0445327 11.74088674 27.05363305 10.0625 27.0625 C8.78729492 27.07506836 8.78729492 27.07506836 7.48632812 27.08789062 C6.67744141 27.09111328 5.86855469 27.09433594 5.03515625 27.09765625 C4.2862915 27.10289307 3.53742676 27.10812988 2.76586914 27.11352539 C1 27 1 27 0 26 C-0.08631874 24.65732587 -0.10706473 23.31025678 -0.09765625 21.96484375 C-0.09443359 21.15595703 -0.09121094 20.34707031 -0.08789062 19.51367188 C-0.07951172 18.66353516 -0.07113281 17.81339844 -0.0625 16.9375 C-0.05798828 16.08349609 -0.05347656 15.22949219 -0.04882812 14.34960938 C-0.03700373 12.23304337 -0.01906769 10.11651315 0 8 C-1.65 8 -3.3 8 -5 8 C-5 7.01 -5 6.02 -5 5 C-3.35 5 -1.7 5 0 5 C0 3.35 0 1.7 0 0 Z M3 8 C2.97314905 10.47923801 2.95323453 12.9581884 2.9375 15.4375 C2.92912109 16.14455078 2.92074219 16.85160156 2.91210938 17.58007812 C2.90346412 19.38693559 2.94779989 21.19387603 3 23 C4.16277032 24.39156484 4.16277032 24.39156484 7.37890625 24.09765625 C8.77347077 24.09098369 10.16801743 24.07902532 11.5625 24.0625 C12.27341797 24.05798828 12.98433594 24.05347656 13.71679688 24.04882812 C15.47790013 24.03700864 17.23896036 24.01907263 19 24 C19.02685095 21.52076199 19.04676547 19.0418116 19.0625 16.5625 C19.07087891 15.85544922 19.07925781 15.14839844 19.08789062 14.41992188 C19.09653588 12.61306441 19.05220011 10.80612397 19 9 C17.83722968 7.60843516 17.83722968 7.60843516 14.62109375 7.90234375 C13.22652923 7.90901631 11.83198257 7.92097468 10.4375 7.9375 C9.72658203 7.94201172 9.01566406 7.94652344 8.28320312 7.95117188 C6.52209987 7.96299136 4.76103964 7.98092737 3 8 Z " fill="#F5F5F5" transform="translate(5,0)"/>
</svg>
