<?xml version="1.0" encoding="UTF-8"?>
<svg version="1.1" xmlns="http://www.w3.org/2000/svg" width="32" height="32">
<path d="M0 0 C1.98 0 3.96 0 6 0 C6 4.62 6 9.24 6 14 C7.65 14 9.3 14 11 14 C10.49477778 18.37859255 7.82172778 20.81651224 5 24 C2.35337395 23.84876423 0.55721506 23.49998757 -1.4453125 21.703125 C-5 17.6 -5 17.6 -5 14 C-3.35 14 -1.7 14 0 14 C0 9.38 0 4.76 0 0 Z " fill="#06EBB7" transform="translate(13,0)"/>
<path d="M0 0 C1.32 0 2.64 0 4 0 C4 1.98 4 3.96 4 6 C11.26 6 18.52 6 26 6 C26 4.02 26 2.04 26 0 C27.32 0 28.64 0 30 0 C30 3.3 30 6.6 30 10 C20.1 10 10.2 10 0 10 C0 6.7 0 3.4 0 0 Z " fill="#07EAB7" transform="translate(1,22)"/>
</svg>
