<?xml version="1.0" encoding="UTF-8"?>
<svg version="1.1" xmlns="http://www.w3.org/2000/svg" width="512" height="512">
<path d="M0 0 C1.11108107 -0.010195 1.11108107 -0.010195 2.24460822 -0.02059597 C4.71015869 -0.03948521 7.17520886 -0.03713656 9.64082336 -0.03465271 C11.41547276 -0.04363559 13.1901163 -0.05384505 14.9647522 -0.06518555 C19.77493885 -0.09163979 24.58496529 -0.09871719 29.39521766 -0.10063291 C32.40467785 -0.10276859 35.41409761 -0.10917953 38.42354774 -0.11712456 C48.93480123 -0.14486573 59.44594074 -0.15713197 69.95722961 -0.1547699 C79.73496952 -0.15296921 89.512212 -0.18459633 99.2898261 -0.23200089 C107.70029989 -0.27131507 116.11061173 -0.28731787 124.52117664 -0.28540367 C129.53732319 -0.28464111 134.55302773 -0.29306082 139.56908226 -0.32493782 C144.29141193 -0.35412951 149.01288164 -0.35411922 153.73524284 -0.33238792 C155.46049516 -0.32926835 157.18580241 -0.33623197 158.91096115 -0.3544693 C170.12184613 -0.46523085 179.29451019 0.46687108 188.28356457 8.04941463 C194.45447725 14.19222472 196.87759959 23.41907943 198.9030304 31.62306213 C199.17085831 32.70477188 199.43868622 33.78648163 199.71463013 34.90097046 C200.01901253 36.13855354 200.01901253 36.13855354 200.32954407 37.40113831 C201.23299057 37.39225586 202.13643707 37.38337341 203.06726074 37.3742218 C211.58629837 37.29403443 220.10520903 37.2331528 228.62453747 37.19388962 C233.00431623 37.17302524 237.38378284 37.14472895 241.76338196 37.09938049 C245.99090958 37.05588118 250.21813718 37.03199254 254.44587135 37.02162933 C256.05782608 37.01424525 257.6697646 36.99982564 259.28159142 36.97821808 C261.54166872 36.94912853 263.80051049 36.94518443 266.06074524 36.94703674 C267.98934639 36.93371307 267.98934639 36.93371307 269.95690918 36.92012024 C273.93092065 37.48690893 275.5620381 38.53620311 278.32954407 41.40113831 C279.39204407 44.83863831 279.39204407 44.83863831 279.32954407 48.40113831 C277.56313234 51.20303276 276.29904585 52.91638741 273.32954407 54.40113831 C271.20537407 54.49288865 269.07824952 54.51864524 266.95210266 54.5146637 C265.97143074 54.51488274 265.97143074 54.51488274 264.97094727 54.5151062 C262.8065918 54.51440866 260.64232203 54.5066237 258.47798157 54.49879456 C256.97868395 54.49692981 255.47938572 54.49550617 253.98008728 54.49450684 C250.03122784 54.4906861 246.0824051 54.48085958 242.13356018 54.46980286 C238.10514319 54.45957922 234.07672028 54.45500717 230.04829407 54.44996643 C222.14202534 54.43923693 214.23579349 54.4216437 206.32954407 54.40113831 C209.29954407 63.31113831 212.26954407 72.22113831 215.32954407 81.40113831 C219.61438782 81.41531799 223.89923157 81.42949768 228.31391907 81.44410706 C231.73271757 81.4693554 235.15139142 81.49958303 238.57011414 81.53318024 C242.17783544 81.5672686 245.78513 81.59260158 249.39302063 81.59669495 C252.86880419 81.60097689 256.34363004 81.62942792 259.81911469 81.67457008 C261.78878657 81.69386091 263.75865159 81.68818659 265.72840881 81.68218994 C267.5298233 81.71165459 267.5298233 81.71165459 269.36763 81.74171448 C270.42464111 81.74837631 271.48165222 81.75503815 272.57069397 81.76190186 C276.2794843 82.6212432 277.32708996 84.24946048 279.32954407 87.40113831 C279.64204407 89.53395081 279.64204407 89.53395081 279.32954407 91.52613831 C279.24704407 92.18871643 279.16454407 92.85129456 279.07954407 93.53395081 C278.01552846 96.18290633 276.78484924 96.94749749 274.32954407 98.40113831 C271.2179718 98.78881836 271.2179718 98.78881836 267.51313782 98.80519104 C266.83622894 98.81205429 266.15932007 98.81891754 265.4618988 98.82598877 C263.23006567 98.84425218 260.9989357 98.8404207 258.76704407 98.83473206 C257.2129239 98.83929373 255.65880576 98.84459926 254.10469055 98.85061646 C250.84980567 98.85954632 247.59516618 98.85712554 244.34028625 98.84718323 C240.17034545 98.83568654 236.00125057 98.85591548 231.8314209 98.88510036 C228.62290575 98.90344984 225.41459388 98.9031726 222.20603943 98.89746284 C220.66865349 98.89730951 219.13125387 98.90336381 217.59391785 98.91575432 C215.44405574 98.93064204 213.29576345 98.92000677 211.14595032 98.90284729 C209.9233551 98.90268112 208.70075989 98.90251495 207.44111633 98.90234375 C203.65753443 98.29289242 202.57930692 97.46287543 200.32954407 94.40113831 C199.15412903 91.76100159 199.15412903 91.76100159 198.19477844 88.72145081 C197.64400635 87.00816589 197.64400635 87.00816589 197.08210754 85.26026917 C196.50849487 83.41187439 196.50849487 83.41187439 195.92329407 81.52613831 C195.51370913 80.237458 195.10300439 78.94913313 194.6912384 77.66114807 C193.61007913 74.26939094 192.54361855 70.87318944 191.48036194 67.4757843 C190.40849251 64.05893033 189.32383422 60.64614798 188.23970032 57.23316956 C187.01446453 53.37464811 185.79141622 49.51551829 184.57698059 45.65357971 C183.84908999 43.3393428 183.11492193 41.0270686 182.37373352 38.71705627 C181.67619183 36.50194961 181.01066322 34.27651317 180.37715149 32.04225159 C180.06431213 30.98634827 179.75147278 29.93044495 179.42915344 28.84254456 C179.16727234 27.91256653 178.90539124 26.9825885 178.63557434 26.02442932 C176.91745112 22.57340884 174.58151094 20.38690144 171.32954407 18.40113831 C167.82243646 17.65987931 167.82243646 17.65987931 163.99798584 17.77294922 C163.28176546 17.76585483 162.56554507 17.75876044 161.82762104 17.75145108 C159.43895513 17.73391465 157.05192594 17.75195154 154.6632843 17.77003479 C152.94638836 17.76489431 151.22949769 17.75761205 149.51261902 17.74835205 C144.85762934 17.72984757 140.20321288 17.74276997 135.5482471 17.76244235 C130.67521425 17.7788354 125.80221752 17.77001516 120.9291687 17.7649231 C112.74718576 17.76040331 104.56543152 17.77626596 96.38349915 17.80421448 C86.92438982 17.83627656 77.46569271 17.83624612 68.00655407 17.81899971 C58.90503358 17.80313674 49.80366422 17.80986601 40.70215034 17.82693672 C36.8294224 17.83380882 32.95681553 17.83277317 29.08408928 17.82539177 C24.52440135 17.81773118 19.9651827 17.82984754 15.4055748 17.85724068 C13.73223705 17.86412758 12.05885549 17.86421919 10.38551903 17.85702515 C8.10119513 17.84833587 5.8183213 17.86427526 3.53411865 17.88647461 C2.25601035 17.88928153 0.97790205 17.89208845 -0.33893681 17.89498043 C-4.24421885 18.48831014 -5.89235245 19.64852525 -8.67045593 22.40113831 C-9.90341389 24.86705422 -9.7980315 26.48167198 -9.8018837 29.24039173 C-9.80572484 30.26889203 -9.80956599 31.29739233 -9.81352353 32.3570593 C-9.81265705 33.49565277 -9.81179057 34.63424623 -9.81089783 35.80734253 C-9.81386895 37.0101715 -9.81684007 38.21300046 -9.81990123 39.45227879 C-9.82709712 42.80158702 -9.82976175 46.15084398 -9.8304987 49.50015628 C-9.83234627 53.10829997 -9.83989211 56.71643246 -9.84663391 60.3245697 C-9.86023008 68.21916177 -9.86624398 76.11374878 -9.87064457 84.00835061 C-9.87340488 88.93553224 -9.87764185 93.8627119 -9.88214874 98.7898922 C-9.8943432 112.42526406 -9.90464209 126.06063434 -9.90802383 139.69601154 C-9.9082434 140.56912881 -9.90846297 141.44224608 -9.90868919 142.34182144 C-9.90890746 143.2170576 -9.90912574 144.09229376 -9.90935063 144.99405223 C-9.9097941 146.76768704 -9.91024067 148.54132185 -9.91069031 150.31495667 C-9.91091174 151.19474547 -9.91113317 152.07453427 -9.91136131 152.98098334 C-9.91531002 167.23942607 -9.9327655 181.49781771 -9.95604983 195.7562407 C-9.97974917 210.38660076 -9.99222504 225.01693516 -9.99339175 239.64731473 C-9.99430933 247.86517854 -10.00008224 256.0829758 -10.01821136 264.3008213 C-10.03359327 271.29815408 -10.03874416 278.29539976 -10.03047326 285.29274622 C-10.02655991 288.86399011 -10.02752949 292.43505848 -10.04153061 296.0062809 C-10.05656188 299.87559129 -10.04842325 303.74465313 -10.03794861 307.61398315 C-10.04600501 308.74588445 -10.05406142 309.87778576 -10.06236196 311.0439871 C-10.05577211 312.08031063 -10.04918227 313.11663417 -10.04239273 314.18436146 C-10.04298982 315.07751869 -10.04358691 315.97067592 -10.04420209 316.89089853 C-9.58057673 320.00480564 -8.50859558 321.86198627 -6.67045593 324.40113831 C-3.09434638 326.78521134 -0.5702867 326.68275852 3.55636406 326.65840721 C4.67363602 326.66366632 4.67363602 326.66366632 5.81347913 326.66903168 C8.32931362 326.67839466 10.84491912 326.67340984 13.36076355 326.66856384 C15.17470334 326.67229764 16.98864153 326.67689807 18.80257714 326.68229449 C23.80285682 326.69457335 28.80306984 326.6942583 33.80336118 326.69190574 C39.18996805 326.6914988 44.57655319 326.70252488 49.96315002 326.71202087 C60.52226668 326.72865847 71.08136102 326.73413166 81.64048968 326.73524563 C90.22018509 326.73619477 98.79987312 326.74029836 107.37956619 326.74664688 C131.68502968 326.76426661 155.99047547 326.77348458 180.29594539 326.77198593 C181.60721362 326.77190602 182.91848185 326.77182611 184.26948547 326.77174377 C185.58234792 326.77166201 186.89521036 326.77158025 188.24785651 326.77149601 C209.53212576 326.77068284 230.81631655 326.78982639 252.10056613 326.81802051 C273.93591992 326.84671727 295.77123919 326.86056258 317.60661232 326.85883296 C329.87323308 326.85816796 342.1397797 326.8637083 354.40638351 326.88518906 C364.84938359 326.90335867 375.29227591 326.907783 385.73528491 326.89417021 C391.06650212 326.88761926 396.39751238 326.88759978 401.72871017 326.90487671 C406.60546064 326.92051878 411.48183853 326.91783515 416.35857941 326.90030845 C418.12640174 326.8972189 419.89425126 326.90094381 421.66204153 326.9120286 C424.05883101 326.92606661 426.45429848 326.91563026 428.85104179 326.89891624 C429.54296118 326.9088526 430.23488056 326.91878896 430.9477672 326.92902642 C435.65295631 326.85929946 438.01842733 325.71035108 441.32954407 322.40113831 C442.98720679 319.08581287 442.4836064 315.378208 442.48776245 311.73265076 C442.49516942 310.37026455 442.49516942 310.37026455 442.50272602 308.98035538 C442.51815765 305.9186326 442.52647693 302.85693087 442.53486633 299.79518127 C442.54444041 297.60772006 442.5544502 295.42026072 442.56486511 293.23280334 C442.59197124 287.27857813 442.61294984 281.32434494 442.6328671 275.37009192 C442.65469153 269.15338521 442.6820975 262.93670325 442.70892334 256.72001648 C442.75321392 246.28056414 442.79404104 235.84110294 442.83222961 225.40162659 C442.87157789 214.64771026 442.9130025 203.89380525 442.95722961 193.13990784 C442.95995389 192.47732027 442.96267816 191.81473269 442.96548498 191.13206671 C442.97916435 187.80814402 442.99288688 184.48422151 443.00662529 181.16029906 C443.120519 153.57393528 443.22734189 125.98754771 443.32954407 98.40113831 C442.58674194 98.40780014 441.84393982 98.41446198 441.07862854 98.42132568 C434.07502009 98.4814616 427.07150122 98.52712521 420.06770706 98.55657482 C416.46704841 98.57222427 412.86660328 98.59344888 409.2660675 98.62745667 C405.7906815 98.66007659 402.31550074 98.67799675 398.83997345 98.68577003 C396.87013983 98.69400269 394.90038865 98.71741804 392.93067932 98.74102783 C391.12926483 98.74136772 391.12926483 98.74136772 389.29145813 98.74171448 C388.23444702 98.74837631 387.17743591 98.75503815 386.08839417 98.76190186 C382.92048786 98.3476477 381.57337072 97.64985909 379.32954407 95.40113831 C378.22581029 91.42769669 377.91410824 89.31114059 379.64204407 85.52613831 C381.32954407 83.40113831 381.32954407 83.40113831 383.32954407 82.40113831 C385.23936353 82.3099416 387.15241592 82.28361293 389.06440735 82.28761292 C390.86604843 82.28772621 390.86604843 82.28772621 392.7040863 82.2878418 C394.65724258 82.29558372 394.65724258 82.29558372 396.64985657 82.30348206 C397.9922124 82.30534693 399.33456891 82.3067705 400.67692566 82.30776978 C404.21150082 82.31158952 407.74603494 82.32141518 411.28059387 82.33247375 C414.88674871 82.34269953 418.49291017 82.3472699 422.09907532 82.35231018 C429.17591503 82.36303793 436.25272687 82.38010786 443.32954407 82.40113831 C443.19142484 78.08835445 443.04276298 73.77599878 442.89204407 69.46363831 C442.85272766 68.23193909 442.81341125 67.00023987 442.77290344 65.73121643 C442.73100891 64.56139221 442.68911438 63.39156799 442.64595032 62.18629456 C442.6092926 61.10227356 442.57263489 60.01825256 442.53486633 58.90138245 C442.60590141 56.4618753 442.60590141 56.4618753 441.32954407 55.40113831 C439.57138178 55.28838668 437.80876739 55.24433964 436.04707336 55.22755432 C434.9188768 55.21406448 433.79068024 55.20057465 432.6282959 55.18667603 C431.39919998 55.17623764 430.17010406 55.16579926 428.90376282 55.15504456 C426.32758757 55.12210431 423.75141578 55.0888927 421.17524719 55.05543518 C417.09334074 55.0069367 413.01140697 54.9631777 408.92939758 54.92433167 C405.00403891 54.88640186 401.07894648 54.83310649 397.15376282 54.78004456 C395.93073959 54.7716304 394.70771637 54.76321625 393.44763184 54.75454712 C392.30997879 54.73790512 391.17232574 54.72126312 390.00019836 54.70411682 C388.99949814 54.69380936 387.99879791 54.68350189 386.96777344 54.67288208 C384.25501878 54.39346203 382.62416923 53.84427495 380.32954407 52.40113831 C378.28003443 49.76605448 378.33157177 48.28758711 378.39204407 44.90113831 C379.53268911 40.64273016 380.68001149 39.75685825 384.32954407 37.40113831 C387.14135742 36.88647461 387.14135742 36.88647461 390.24629211 36.86769104 C391.41488266 36.85185471 392.58347321 36.83601837 393.78747559 36.81970215 C395.67035027 36.82714195 395.67035027 36.82714195 397.59126282 36.83473206 C398.89223404 36.82853348 400.19320526 36.8223349 401.53359985 36.81594849 C404.28664353 36.8055545 407.03917016 36.81008548 409.79219055 36.82472229 C413.29480786 36.84183292 416.79577267 36.81850947 420.29820538 36.78323269 C423.66681643 36.755775 427.03504555 36.76600945 430.40376282 36.77223206 C431.64889145 36.75897385 432.89402008 36.74571564 434.17687988 36.73205566 C441.88709587 36.81364716 447.9454903 37.86310655 454.32954407 42.40113831 C458.89172029 47.10964887 460.44667322 51.6648375 460.46935177 58.07649994 C460.47504301 59.01758055 460.48073425 59.95866117 460.48659796 60.92825937 C460.48777783 61.95897861 460.48895771 62.98969785 460.49017334 64.051651 C460.49780507 65.69791607 460.49780507 65.69791607 460.50559098 67.37743902 C460.52133202 71.06828022 460.52984496 74.75910182 460.5382843 78.44996643 C460.54539206 80.41835886 460.55250613 82.3867513 460.56012463 84.35514182 C460.5934258 92.96408742 460.61496693 101.5730449 460.63332447 110.18203378 C460.63812156 112.42478674 460.64310464 114.66753921 460.6481297 116.91029167 C460.67910525 130.84645259 460.70578226 144.78261771 460.72254848 158.71880341 C460.7264978 161.94592293 460.73050081 165.17304237 460.73457336 168.40016174 C460.73558173 169.202218 460.73659009 170.00427426 460.737629 170.83063525 C460.75462359 183.81362055 460.79572007 196.79641483 460.84659635 209.77930695 C460.89843609 223.11815731 460.92749916 236.45690959 460.93474537 249.79585981 C460.93939984 257.2812906 460.95406881 264.76640869 460.99448967 272.2517395 C461.02888527 278.62892632 461.0426908 285.00574398 461.03006553 291.3830182 C461.02426039 294.63340138 461.03126033 297.88284565 461.05823517 301.13314438 C461.26083949 326.93159712 461.26083949 326.93159712 454.32954407 335.40113831 C447.49645006 342.04550301 441.23689884 344.71492437 431.65104961 344.65840721 C430.51518757 344.66366632 430.51518757 344.66366632 429.35637882 344.66903168 C426.8164107 344.67834301 424.27667198 344.67342307 421.73669434 344.66856384 C419.89826738 344.67230023 418.059842 344.67690171 416.22141916 344.68229449 C411.16723067 344.69454122 406.11310829 344.69426205 401.05890834 344.69190574 C395.60888259 344.691498 390.15887815 344.70253262 384.7088623 344.71202087 C374.03050255 344.72864086 363.35216488 344.73413087 352.67379328 344.73524563 C343.99504307 344.7361956 335.31630016 344.74030333 326.63755226 344.74664688 C302.03805105 344.76426175 277.43856628 344.77349747 252.83905884 344.77198593 C251.84459442 344.7719261 251.84459442 344.7719261 250.83003982 344.77186505 C249.48934031 344.77178418 248.1486408 344.77170058 246.8079413 344.77161427 C225.94882203 344.77038876 205.08976778 344.78540212 184.23066711 344.8127594 C160.79411246 344.84348444 137.35759347 344.86066631 113.92101651 344.85883296 C101.51234917 344.85816859 89.10375516 344.86368117 76.6951046 344.88518906 C66.1307873 344.90338265 55.56657657 344.90776312 45.0022504 344.89417021 C39.61178482 344.88763149 34.22152381 344.88755611 28.83107758 344.90487671 C23.89564263 344.92057224 18.96057506 344.9177797 14.02514926 344.90030845 C12.24052187 344.89723081 10.45586729 344.90089961 8.67127194 344.9120286 C-2.0158104 344.97425625 -9.87172968 344.30412713 -18.92045593 338.21363831 C-24.78592526 332.21486286 -27.78377315 325.59939673 -27.81026363 317.24163818 C-27.81595488 316.19257231 -27.82164612 315.14350643 -27.82750982 314.06265068 C-27.8286897 312.91131205 -27.82986957 311.75997341 -27.83108521 310.57374573 C-27.83617302 309.34964556 -27.84126084 308.12554539 -27.84650284 306.86435127 C-27.859501 303.46467281 -27.86798926 300.06503802 -27.87447584 296.66534448 C-27.88085126 293.74968627 -27.89092077 290.83404559 -27.90103649 287.91839832 C-27.9343466 278.3121655 -27.95588016 268.70592202 -27.97423634 259.09965038 C-27.97903278 256.59745696 -27.98401593 254.09526396 -27.98904157 251.59307098 C-28.02001586 236.04798229 -28.04669556 220.50288984 -28.06346035 204.95777893 C-28.06740972 201.35768121 -28.07141273 197.75758355 -28.07548523 194.15748596 C-28.07649359 193.26272065 -28.07750195 192.36795533 -28.07854087 191.44607592 C-28.09553856 176.95963309 -28.13663821 162.47336136 -28.18750822 147.98700202 C-28.23933034 133.10681467 -28.2684087 118.22671522 -28.27565724 103.34643841 C-28.28031385 94.99470597 -28.29500569 86.64325365 -28.33540154 78.29161072 C-28.36977265 71.17698796 -28.38361239 64.06269589 -28.37097739 56.94799489 C-28.3651668 53.32098493 -28.36889941 49.69467371 -28.39914703 46.06777 C-28.4317476 42.12637106 -28.41730159 38.1859065 -28.39871216 34.24440002 C-28.41550709 33.11090716 -28.43230202 31.9774143 -28.44960588 30.80957317 C-28.3454913 21.94264758 -25.84751884 14.08834852 -19.85103506 7.35951042 C-14.11458316 1.96767908 -7.76039007 -0.05305249 0 0 Z " fill="#000000" transform="translate(39.67045593261719,123.59886169433594)"/>
<path d="M0 0 C2.19227129 1.63015045 3.37457532 2.86721733 5 5 C5.54914063 5.70898438 6.09828125 6.41796875 6.6640625 7.1484375 C11.28150156 13.32402472 15.53394542 19.74142799 19.78979492 26.16845703 C25.95388267 35.47026245 32.2397521 44.68917802 38.51573181 53.91564941 C39.6524013 55.58874298 40.78595646 57.26395103 41.91943359 58.93920898 C43.22770545 60.86385159 44.54682533 62.78120945 45.88134766 64.68774414 C46.42581543 65.4739917 46.9702832 66.26023926 47.53125 67.0703125 C47.99853516 67.73434082 48.46582031 68.39836914 48.94726562 69.08251953 C50.87997533 72.60281222 50.66638428 75.06833277 50 79 C48.6015625 81.21484375 48.6015625 81.21484375 46 83 C42.57069981 83.49147474 39.20514679 83.37581767 35.75 83.25 C34.81414062 83.23195313 33.87828125 83.21390625 32.9140625 83.1953125 C30.60832985 83.14825673 28.30469055 83.08253713 26 83 C26.00368717 84.17559573 26.00737434 85.35119146 26.01117325 86.56241131 C26.09778782 114.46304671 26.16375361 142.36367164 26.20426132 170.26441325 C26.2092642 173.69784149 26.21444148 177.13126945 26.21972656 180.56469727 C26.2207758 181.2482365 26.22182505 181.93177573 26.22290608 182.63602827 C26.24031559 193.70662108 26.27185624 204.77713089 26.30861118 215.84767445 C26.34600552 227.20545194 26.36793319 238.56316786 26.37635398 249.92101079 C26.38157577 256.30125119 26.39387702 262.68130325 26.42292023 269.06148338 C26.45002306 275.06390292 26.45845529 281.06605612 26.45243073 287.06853104 C26.45353325 289.27403649 26.46151742 291.47955065 26.4768219 293.68500328 C26.49666909 296.69199892 26.49195805 299.69798371 26.48101807 302.70500183 C26.49849512 304.01969626 26.49849512 304.01969626 26.51632524 305.36095017 C26.47645757 309.40395009 26.30811117 311.49632849 24.15353012 315.01843739 C21.38140623 317.56919672 19.75229046 318 16 318 C13.12127423 316.6260627 11.25010563 315.25010563 9 313 C8.74700034 311.2044946 8.74700034 311.2044946 8.74273109 308.9856739 C8.7362822 308.14117687 8.72983331 307.29667984 8.723189 306.42659199 C8.7278348 305.027009 8.7278348 305.027009 8.73257446 303.59915161 C8.72804335 302.61204535 8.72351224 301.6249391 8.71884382 300.60792053 C8.70611879 297.2790943 8.70782539 293.95042998 8.70947266 290.62158203 C8.70349246 288.2435688 8.6966881 285.86555752 8.68911743 283.48754883 C8.67324125 277.68583837 8.66700679 271.88417757 8.66589268 266.08244647 C8.6649433 261.36760973 8.66083854 256.65278644 8.65449142 251.93795395 C8.63687204 238.5783442 8.62765359 225.21876663 8.62915237 211.85914518 C8.62923228 211.13847395 8.6293122 210.41780272 8.62939453 209.67529297 C8.62947629 208.95374444 8.62955805 208.23219591 8.62964229 207.48878227 C8.63045529 195.79360999 8.61131618 184.09856647 8.5831178 172.40343143 C8.5544101 160.4026079 8.54057635 148.40184721 8.54230535 136.40098846 C8.54297001 129.66033804 8.53744472 122.91982258 8.51594925 116.17920303 C8.49664406 109.84104115 8.49638949 103.503165 8.51098251 97.16499329 C8.51308133 94.83490967 8.50830641 92.50480853 8.4962616 90.1747551 C8.48091494 87.00110161 8.49004749 83.82844636 8.50552368 80.65481567 C8.49523656 79.72622179 8.48494943 78.79762791 8.47435057 77.84089482 C8.54157718 71.63021543 8.54157718 71.63021543 10.85610008 68.44833183 C13.49832883 66.66334925 15.60273314 66.19960955 18.75 65.75 C19.73484375 65.60046875 20.7196875 65.4509375 21.734375 65.296875 C22.48203125 65.19890625 23.2296875 65.1009375 24 65 C15.12158087 51.58420697 6.06004031 38.29342383 -3 25 C-10.52593174 34.37481592 -17.24857184 44.2523862 -23.86328125 54.27880859 C-25.4426726 56.6702839 -27.03353125 59.05405034 -28.625 61.4375 C-29.09164063 62.13746094 -29.55828125 62.83742187 -30.0390625 63.55859375 C-30.35617187 64.03425781 -30.67328125 64.50992188 -31 65 C-30.25234375 65.09796875 -29.5046875 65.1959375 -28.734375 65.296875 C-27.74953125 65.44640625 -26.7646875 65.5959375 -25.75 65.75 C-24.77546875 65.88921875 -23.8009375 66.0284375 -22.796875 66.171875 C-19.27819776 67.21371798 -18.17010447 68.01898958 -16 71 C-15.39635221 74.20888609 -15.46072286 77.38436621 -15.49206543 80.64135742 C-15.48582547 81.63017253 -15.4795855 82.61898764 -15.47315645 83.63776684 C-15.45716534 86.96057465 -15.46985497 90.28265512 -15.48242188 93.60546875 C-15.4770035 95.98377919 -15.46988244 98.36208627 -15.46118164 100.74038696 C-15.44481036 106.53520433 -15.44724141 112.32978944 -15.4588322 118.124614 C-15.46786175 122.83369348 -15.46909262 127.54271488 -15.46473694 132.25180054 C-15.46412401 132.92174111 -15.46351107 133.59168167 -15.46287957 134.28192347 C-15.46160068 135.64284843 -15.46030383 137.00377337 -15.4589892 138.36469829 C-15.44758002 151.12939988 -15.46070236 163.8939866 -15.48219067 176.65866935 C-15.500062 187.61397512 -15.49695799 198.56911136 -15.47851562 209.52441406 C-15.45711483 222.24308852 -15.44867869 234.96166227 -15.46096468 247.68035221 C-15.46223889 249.03630128 -15.46349637 250.39225036 -15.46473694 251.74819946 C-15.46535404 252.41537135 -15.46597114 253.08254323 -15.46660694 253.76993245 C-15.47006223 258.47395536 -15.46422768 263.17791446 -15.45481873 267.88192749 C-15.44328656 274.21193474 -15.45123811 280.541621 -15.47439575 286.87159348 C-15.47969689 289.19844402 -15.47814522 291.52532146 -15.46934509 293.85216141 C-15.45846185 297.02135646 -15.4720665 300.18951415 -15.49206543 303.35864258 C-15.48314254 304.28587222 -15.47421966 305.21310186 -15.46502638 306.16842937 C-15.54124882 312.3685266 -15.54124882 312.3685266 -17.84815216 315.54399109 C-20.66889757 317.45259744 -22.59425131 317.93049492 -26 318 C-29.52906067 316.39588152 -30.82772908 315.25840638 -33 312 C-33.19016427 308.95119695 -33.26064104 305.99446519 -33.24050903 302.94551086 C-33.24221788 302.0078141 -33.24392673 301.07011733 -33.24568737 300.10400552 C-33.24899278 296.94857346 -33.23796123 293.79335206 -33.22705078 290.63793945 C-33.22648689 288.38136805 -33.22680278 286.12479628 -33.22793579 283.8682251 C-33.22851118 277.73013681 -33.2167267 271.59212621 -33.20278788 265.45405602 C-33.19031157 259.0438528 -33.18911247 252.63364794 -33.18673706 246.22343445 C-33.18122093 235.46038204 -33.1687163 224.69736369 -33.15087891 213.93432617 C-33.13252439 202.84773909 -33.11836579 191.76115976 -33.10986328 180.67456055 C-33.10933783 179.99132673 -33.10881239 179.30809291 -33.10827102 178.60415504 C-33.10566097 175.17661468 -33.10313354 171.74907426 -33.10064721 168.3215338 C-33.07990955 139.88100285 -33.04453097 111.44050296 -33 83 C-33.87736816 83.0314209 -33.87736816 83.0314209 -34.77246094 83.06347656 C-37.43146465 83.14680115 -40.09019355 83.19870897 -42.75 83.25 C-43.67039062 83.28351563 -44.59078125 83.31703125 -45.5390625 83.3515625 C-52.34055704 83.45013488 -52.34055704 83.45013488 -55.6072998 81.22026062 C-57.71771458 77.85581016 -57.74921716 74.78397308 -57 71 C-55.81112163 68.22014622 -54.20861729 65.85098654 -52.46875 63.38671875 C-51.9994104 62.69165726 -51.5300708 61.99659576 -51.04650879 61.2804718 C-49.54801628 59.07063524 -48.02458453 56.87939237 -46.5 54.6875 C-45.50615683 53.22833985 -44.51395398 51.76806106 -43.5234375 50.30664062 C-38.70312188 43.22234955 -33.75975392 36.23925865 -28.68945312 29.33129883 C-26.36020962 26.11714475 -24.16929806 22.82323898 -22 19.5 C-8.54290365 -0.86876986 -8.54290365 -0.86876986 0 0 Z " fill="#000000" transform="translate(372,44)"/>
<path d="M0 0 C1.41804176 -0.01925285 1.41804176 -0.01925285 2.86473083 -0.03889465 C3.89171585 -0.04628159 4.91870087 -0.05366852 5.97680664 -0.0612793 C7.03549454 -0.06935104 8.09418243 -0.07742279 9.18495178 -0.08573914 C11.4336686 -0.09959376 13.68240657 -0.11030972 15.93115234 -0.11816406 C19.34197136 -0.13527237 22.75179455 -0.17913423 26.16235352 -0.22338867 C28.35049745 -0.23352486 30.53864962 -0.24203806 32.72680664 -0.2487793 C33.73557358 -0.26628738 34.74434052 -0.28379547 35.78367615 -0.30183411 C45.82893472 -0.27165319 54.38756763 2.27543026 61.73071289 9.31762695 C68.07886328 16.18517146 70.84713441 22.46179449 70.82446289 31.98950195 C70.82285156 32.69437744 70.82124023 33.39925293 70.81958008 34.12548828 C70.62561005 42.38918197 67.95045603 48.08661669 62.44946289 54.17700195 C63.85829616 58.27542601 65.93984646 61.63291798 68.32836914 65.2121582 C71.88035334 71.43741273 71.35096209 80.22898328 70.44946289 87.17700195 C67.75401649 96.0192597 62.69937326 102.61642367 54.6870575 107.18104553 C48.06593812 110.51570815 42.18733393 110.7462086 34.86352539 110.6730957 C33.68478851 110.67455093 32.50605164 110.67600616 31.29159546 110.67750549 C28.81570955 110.67585355 26.33981261 110.66437193 23.86401367 110.64355469 C20.06523473 110.61443121 16.26783832 110.62299506 12.46899414 110.63598633 C10.05883109 110.62975348 7.64867244 110.6213661 5.23852539 110.6105957 C4.10105865 110.61353134 2.96359192 110.61646698 1.79165649 110.61949158 C0.73981171 110.6068074 -0.31203308 110.59412323 -1.39575195 110.58105469 C-2.32124847 110.5756517 -3.246745 110.57024872 -4.20028687 110.56468201 C-7.00907032 110.10136567 -7.86593341 109.43465607 -9.55053711 107.17700195 C-10.45070433 104.47650028 -10.68109821 102.90232951 -10.69770813 100.12942505 C-10.70486343 99.30793976 -10.71201874 98.48645447 -10.71939087 97.64007568 C-10.72207977 96.74234436 -10.72476868 95.84461304 -10.72753906 94.91967773 C-10.73739586 93.49729294 -10.73739586 93.49729294 -10.74745178 92.0461731 C-10.76717998 88.9048861 -10.77884504 85.76364685 -10.78881836 82.62231445 C-10.79289389 81.55011532 -10.79696941 80.47791618 -10.80116844 79.37322617 C-10.82202501 73.70056094 -10.83632974 68.02791989 -10.84570312 62.35522461 C-10.85677948 56.49166647 -10.89119492 50.62848657 -10.93087482 44.76506233 C-10.9569938 40.25950404 -10.96539067 35.75403662 -10.9689846 31.24840927 C-10.9738611 29.08663243 -10.98550515 26.92485992 -11.0040226 24.76315689 C-11.02831802 21.73950244 -11.02746666 18.716837 -11.02050781 15.69311523 C-11.03331787 14.79943237 -11.04612793 13.90574951 -11.05932617 12.98498535 C-11.02458731 8.84700443 -10.89482903 6.72520419 -8.64616394 3.14474487 C-5.6421834 0.32407978 -4.01455316 0.04745105 0 0 Z M6.44946289 17.17700195 C6.44946289 27.07700195 6.44946289 36.97700195 6.44946289 47.17700195 C11.28848903 47.26927152 16.12441523 47.34876808 20.96362305 47.39672852 C22.60663239 47.41673766 24.24957148 47.44395408 25.89233398 47.47875977 C28.26572077 47.527755 30.63815938 47.550077 33.01196289 47.56762695 C33.73625488 47.58827209 34.46054688 47.60891724 35.20678711 47.63018799 C40.69461916 47.63255616 44.8570122 46.200602 49.44946289 43.17700195 C52.79301049 39.66627698 53.72221336 36.90663287 53.94946289 32.17700195 C53.72984548 27.45876989 52.73304737 24.71316985 49.44946289 21.17700195 C44.06288499 17.47992554 40.34848691 16.60893301 33.89086914 16.78637695 C33.10171616 16.79203674 32.31256317 16.79769653 31.49949646 16.80352783 C29.00300915 16.8257451 26.50800914 16.87590976 24.01196289 16.92700195 C22.3095098 16.94708607 20.607034 16.96533348 18.90454102 16.98168945 C14.75182799 17.02214452 10.60229066 17.10045213 6.44946289 17.17700195 Z M6.44946289 64.17700195 C6.44946289 74.07700195 6.44946289 83.97700195 6.44946289 94.17700195 C11.02125283 94.22310404 15.59222468 94.26287112 20.1640625 94.28686523 C21.7168248 94.29687576 23.26956847 94.31048829 24.82226562 94.32788086 C27.06393044 94.35234847 29.30534438 94.36353464 31.54711914 94.37231445 C32.23282486 94.38263702 32.91853058 94.39295959 33.62501526 94.40359497 C39.05504813 94.40483751 44.17603868 93.81290509 48.66430664 90.58325195 C52.01874976 86.87130583 53.92126743 84.15165895 54.13696289 79.05200195 C53.77831015 74.46687284 52.58335299 71.64077522 49.44946289 68.17700195 C44.45306099 64.07465361 40.95366542 63.62235653 34.76977539 63.78637695 C33.95701141 63.79203674 33.14424744 63.79769653 32.30685425 63.80352783 C29.72877344 63.82579357 27.15211858 63.8759688 24.57446289 63.92700195 C22.81927473 63.94707975 21.06406463 63.96532828 19.30883789 63.98168945 C15.02139767 64.02221346 10.73701286 64.10051444 6.44946289 64.17700195 Z " fill="#000000" transform="translate(193.550537109375,279.822998046875)"/>
<path d="M0 0 C10.67133425 6.93401675 19.64030595 19.30064817 27.6875 29.04296875 C28.22375 29.68878906 28.76 30.33460938 29.3125 31 C29.78300781 31.5775 30.25351563 32.155 30.73828125 32.75 C31.94078727 34.23460001 31.94078727 34.23460001 34 34 C35.50273886 32.55316948 35.50273886 32.55316948 37.0625 30.625 C39.7907947 27.41657062 42.55144446 24.25019633 45.375 21.125 C47.72120925 18.52655323 50.06546487 15.92675185 52.3984375 13.31640625 C53.92832736 11.60608087 55.46447733 9.90132771 57.0078125 8.203125 C58.16882232 6.91918473 59.31673408 5.62268837 60.4296875 4.296875 C62.72498322 1.68653869 64.14161704 0.96273236 67.5625 0.0625 C70.91062198 0.00162505 72.35241936 0.03882915 75 2 C77.04082195 5.06123293 77.25156141 5.67692608 77.26742554 9.12350464 C77.27595551 9.96181824 77.28448547 10.80013184 77.29327393 11.66384888 C77.29236755 12.58028168 77.29146118 13.49671448 77.29052734 14.44091797 C77.29724457 15.40868164 77.30396179 16.37644531 77.31088257 17.37353516 C77.32991483 20.57980452 77.33378943 23.78586513 77.3359375 26.9921875 C77.34236187 29.21794726 77.34908996 31.44370615 77.35610962 33.66946411 C77.36809553 38.33841917 77.3717891 43.00730017 77.37060547 47.67626953 C77.37040223 53.66092097 77.39770428 59.64509782 77.43214989 65.62963676 C77.45438072 70.22785628 77.45844417 74.82596091 77.45738602 79.42422867 C77.45974773 81.63065349 77.46860321 83.83708121 77.48405075 86.04345322 C77.50363273 89.12940505 77.49790291 92.21432474 77.48583984 95.30029297 C77.49707886 96.21267731 77.50831787 97.12506165 77.51989746 98.06509399 C77.47839686 102.24016376 77.34631735 104.43893203 75.10830688 108.06472778 C72.7079894 110.26804447 71.71715734 110.68008831 68.5 110.625 C67.37078125 110.64433594 67.37078125 110.64433594 66.21875 110.6640625 C62.8799513 109.66477416 61.88188266 107.88625535 60 105 C59.48101807 101.66532898 59.48101807 101.66532898 59.45410156 97.82299805 C59.44376389 97.12001083 59.43342621 96.41702362 59.42277527 95.69273376 C59.39340998 93.38215988 59.39184952 91.07246435 59.390625 88.76171875 C59.375639 87.15459021 59.35891096 85.54747704 59.34051514 83.94038391 C59.29687608 79.72031944 59.27685033 75.5004627 59.26177979 71.2802124 C59.24219616 66.96988662 59.2002276 62.65978477 59.16015625 58.34960938 C59.08489152 49.89979824 59.03457763 41.45007513 59 33 C57.87450848 34.1205186 56.74972569 35.24174911 55.62524414 36.36328125 C54.99880508 36.98759033 54.37236603 37.61189941 53.72694397 38.25512695 C51.88933488 40.11181405 50.14065766 42.01938558 48.4375 44 C47.86128906 44.66257812 47.28507812 45.32515625 46.69140625 46.0078125 C45.57678565 47.32064508 44.47978742 48.64867583 43.40234375 49.9921875 C38.43753096 56.11249381 38.43753096 56.11249381 34 57 C30.78963902 57.06979046 28.84185501 56.67270631 26.30859375 54.6484375 C24.45324196 52.83044178 22.71845648 50.94783469 21 49 C20.42121094 48.35289062 19.84242187 47.70578125 19.24609375 47.0390625 C17.4802942 45.04019321 15.74085898 43.02063989 14 41 C12.79314653 39.61833485 11.58538804 38.23745993 10.37695312 36.85717773 C9.42906921 35.77435768 9.42906921 35.77435768 8.46203613 34.66966248 C7.97956421 34.11867386 7.49709229 33.56768524 7 33 C6.99413376 33.86364166 6.98826752 34.72728333 6.98222351 35.61709595 C6.92424714 43.76815219 6.85214206 51.91893585 6.76428509 60.06972694 C6.7196152 64.25984386 6.68035177 68.4498643 6.65356445 72.64013672 C6.62749751 76.6862907 6.58707152 80.73207279 6.53681374 84.77799606 C6.52016786 86.3192519 6.50863939 87.86057202 6.50238609 89.40190506 C6.4927198 91.56601925 6.46463264 93.72918693 6.43237305 95.89306641 C6.42126999 97.12328522 6.41016693 98.35350403 6.39872742 99.6210022 C5.95796792 103.35619902 4.95183361 105.80188173 3 109 C-0.12942465 110.56471233 -3.61082223 110.69701958 -7 110 C-9.09605408 108.58300781 -9.09605408 108.58300781 -11 106 C-11.61313009 102.75513534 -11.55648631 99.54035674 -11.53344727 96.24609375 C-11.54206284 95.25707062 -11.55067841 94.26804749 -11.55955505 93.24905396 C-11.58226685 89.97827014 -11.57546671 86.70833941 -11.56640625 83.4375 C-11.57163928 81.16593164 -11.57791458 78.89436547 -11.58518982 76.62280273 C-11.59560352 71.86138689 -11.59101808 67.10026973 -11.57641602 62.33886719 C-11.5592219 56.23180391 -11.58272701 50.12568088 -11.61790562 44.01872253 C-11.63984611 39.32785791 -11.63844628 34.63721946 -11.6301403 29.94631958 C-11.62931905 27.694417 -11.6362155 25.44249809 -11.65091133 23.19064331 C-11.66829594 20.04447289 -11.65386467 16.90000747 -11.63110352 13.75390625 C-11.64279572 12.8207962 -11.65448792 11.88768616 -11.66653442 10.92630005 C-11.57356528 4.62282218 -11.57356528 4.62282218 -8.63633728 1.43334961 C-5.23319448 -0.41690431 -3.82307105 -0.82458395 0 0 Z " fill="#000000" transform="translate(92,280)"/>
</svg>
