<?xml version="1.0" encoding="UTF-8"?>
<svg version="1.1" xmlns="http://www.w3.org/2000/svg" width="512" height="512">
<path d="M0 0 C1.36749637 -0.00599342 2.73498939 -0.01280083 4.10247803 -0.02035522 C7.79665682 -0.03793445 11.49074282 -0.04270702 15.18495941 -0.0439868 C17.4967087 -0.04541295 19.80843473 -0.04969117 22.12017822 -0.05498123 C30.19536832 -0.07345104 38.27049261 -0.08165521 46.34570312 -0.08007812 C53.85755506 -0.07887584 61.3691201 -0.10000288 68.88089943 -0.13156545 C75.34568945 -0.15775521 81.81038586 -0.16844437 88.2752285 -0.16716731 C92.12973521 -0.16665869 95.98398637 -0.17228648 99.83843994 -0.19352341 C103.46327704 -0.21295303 107.08761586 -0.2129986 110.71247101 -0.19849014 C112.66704231 -0.19541832 114.62161393 -0.21204318 116.57611084 -0.22937012 C124.32519665 -0.17415869 130.43459577 0.40803232 136.20703125 6.10693359 C136.56925781 6.68314453 136.93148437 7.25935547 137.3046875 7.85302734 C137.87509766 8.72121094 137.87509766 8.72121094 138.45703125 9.60693359 C141.26422242 14.79963486 140.7851576 20.56053729 140.3671875 26.29052734 C138.41308611 31.94713662 134.89578251 35.5794268 129.97396851 38.91001892 C124.65508416 40.94584106 119.62034517 40.71322258 113.97119141 40.69116211 C112.72495499 40.69814117 111.47871857 40.70512024 110.19471741 40.71231079 C107.49194731 40.72543038 104.78979545 40.73320171 102.08705521 40.73178291 C97.80803791 40.72974265 93.52928381 40.74936092 89.25033569 40.7719574 C80.93612283 40.81288125 72.62193092 40.83151982 64.30764008 40.84812927 C53.73208131 40.87050064 43.15658389 40.90416434 32.58112466 40.9553284 C28.33329421 40.97517461 24.08560183 40.98482501 19.83772683 40.98628056 C16.56578136 40.98969303 13.29388885 41.0056031 10.02197266 41.01928711 C8.85391586 41.01673416 7.68585907 41.01418121 6.48240662 41.0115509 C-2.14352928 41.06569735 -9.74895695 41.50183063 -16.6328125 47.29052734 C-21.55820628 53.75805719 -21.7829397 60.55876295 -21.76652527 68.3991394 C-21.7699236 69.59892683 -21.7699236 69.59892683 -21.77339059 70.82295239 C-21.77970398 73.49428777 -21.77890294 76.16557206 -21.77807617 78.83691406 C-21.7810693 80.75582952 -21.78447219 82.67474438 -21.78825378 84.59365845 C-21.79708182 89.80028904 -21.79943138 95.0069032 -21.80006957 100.21354055 C-21.8007807 103.46768076 -21.80291619 106.72181679 -21.80556679 109.97595596 C-21.8148159 121.33195511 -21.81890217 132.68794252 -21.81811523 144.04394531 C-21.81751439 154.6241941 -21.82806858 165.20439191 -21.8438589 175.7846278 C-21.85693947 184.87354836 -21.86229892 193.96245228 -21.86165982 203.05138218 C-21.86140501 208.47749889 -21.86424715 213.90357027 -21.87483788 219.32967758 C-21.88452764 224.43339462 -21.88459197 229.53702308 -21.87732124 234.64074326 C-21.87627653 236.51118092 -21.87863154 238.38162413 -21.8846817 240.25205231 C-21.89242063 242.81078781 -21.88774431 245.36921886 -21.88005066 247.927948 C-21.88519422 248.66317841 -21.89033779 249.39840883 -21.89563721 250.15591896 C-21.84613105 257.63733079 -20.58043187 264.40687187 -15.6328125 270.29052734 C-9.16528265 275.21592112 -2.3645769 275.44065455 5.47579956 275.42424011 C6.27565785 275.42650567 7.07551613 275.42877123 7.89961255 275.43110543 C10.57094792 275.43741882 13.24223222 275.43661779 15.91357422 275.43579102 C17.83248968 275.43878415 19.75140454 275.44218703 21.6703186 275.44596863 C26.8769492 275.45479666 32.08356335 275.45714623 37.29020071 275.45778441 C40.54434092 275.45849554 43.79847695 275.46063104 47.05261612 275.46328163 C58.40861527 275.47253074 69.76460268 275.47661702 81.12060547 275.47583008 C91.70085426 275.47522924 102.28105207 275.48578343 112.86128795 275.50157374 C121.95020852 275.51465431 131.03911243 275.52001376 140.12804234 275.51937467 C145.55415904 275.51911986 150.98023042 275.52196199 156.40633774 275.53255272 C161.51005477 275.54224248 166.61368323 275.54230682 171.71740341 275.53503609 C173.58784108 275.53399138 175.45828429 275.53634638 177.32871246 275.54239655 C179.88744797 275.55013547 182.44587902 275.54545915 185.00460815 275.5377655 C185.73983857 275.54290907 186.47506899 275.54805263 187.23257911 275.55335206 C194.71399094 275.50384589 201.48353203 274.23814672 207.3671875 269.29052734 C211.69985425 263.60130679 212.48911597 257.69897467 212.49848938 250.72549438 C212.50249756 249.64338181 212.50650574 248.56126923 212.51063538 247.44636536 C212.51010666 246.2742601 212.50957794 245.10215485 212.5090332 243.89453125 C212.51250763 242.64829483 212.51598206 241.40205841 212.51956177 240.11805725 C212.52690528 237.41548785 212.53258484 234.71296731 212.53585243 232.01039505 C212.54178779 227.73144796 212.55835146 223.45258292 212.57719421 219.17367554 C212.58353077 217.70575147 212.5898564 216.23782735 212.59617138 214.76990318 C212.6009201 213.66754928 212.6009201 213.66754928 212.60576475 212.5429256 C212.6477618 202.58836448 212.68081718 192.6338431 212.69311523 182.67919922 C212.70150845 175.95418508 212.7240418 169.22937603 212.7624709 162.50446451 C212.78218208 158.95064374 212.79465254 155.39712918 212.78963661 151.84325027 C212.78410627 147.87707027 212.80944887 143.9114063 212.8371582 139.9453125 C212.83055679 138.77725571 212.82395538 137.60919891 212.81715393 136.40574646 C212.90273451 128.93918675 213.70074195 123.00428187 219.18359375 117.45068359 C219.75980469 117.08845703 220.33601563 116.72623047 220.9296875 116.35302734 C221.50847656 115.97275391 222.08726562 115.59248047 222.68359375 115.20068359 C227.87629502 112.39349242 233.63719744 112.87255725 239.3671875 113.29052734 C245.01429701 115.24134699 248.6088159 118.75488064 251.98646545 123.62559509 C254.09821534 129.2309378 253.7923496 134.67515154 253.77124023 140.61694336 C253.7769479 141.97603414 253.78391369 143.33512013 253.79203796 144.69419861 C253.80995124 148.3764863 253.80880325 152.0585354 253.80309558 155.74085355 C253.79999781 158.82423889 253.80610345 161.90757881 253.81213433 164.99095768 C253.82617501 172.27517904 253.82462509 179.55928314 253.81323242 186.84350586 C253.80178087 194.33023873 253.81577768 201.81661213 253.8426289 209.30329758 C253.86487906 215.75115226 253.87140156 222.1988949 253.86555248 228.6467852 C253.8622003 232.48861059 253.86447957 236.33020625 253.88180351 240.17199898 C253.89741744 243.7927429 253.89315987 247.41296144 253.87449837 251.03368568 C253.86912938 252.97417679 253.88322046 254.91469229 253.89819336 256.85513306 C253.76315975 273.15644902 247.92402379 287.21370449 236.70703125 299.00927734 C225.20031813 310.22784239 211.34167061 316.61915321 195.21650696 316.55795288 C193.88469077 316.56474955 193.88469077 316.56474955 192.52596921 316.57168353 C189.56844715 316.58428364 186.61111028 316.58270999 183.65356445 316.58105469 C181.52571884 316.58704273 179.3978754 316.59384892 177.27003479 316.60140991 C171.50121293 316.61905042 165.73245044 316.62376452 159.96360421 316.62504148 C156.35529418 316.62646491 152.74699915 316.63073819 149.13869286 316.63603592 C136.53849711 316.6545308 123.93834363 316.66270734 111.33813477 316.66113281 C99.61272501 316.65993205 87.88749952 316.68102318 76.16213638 316.71262014 C66.07946864 316.73881737 55.99686096 316.74949864 45.91415948 316.74822199 C39.89932949 316.74771331 33.88466326 316.75334446 27.86986732 316.77457809 C22.20872742 316.79401808 16.5479065 316.79404547 10.88675499 316.77954483 C8.81684271 316.77746268 6.74691017 316.78212191 4.67703247 316.79426575 C-14.83768042 316.90128068 -30.68522706 313.5773135 -45.3515625 299.63037109 C-56.57012755 288.12365797 -62.96143836 274.26501045 -62.90023804 258.1398468 C-62.90476915 257.25196934 -62.90930026 256.36409189 -62.91396868 255.44930905 C-62.9265688 252.49178699 -62.92499514 249.53445012 -62.92333984 246.5769043 C-62.92932789 244.44905868 -62.93613407 242.32121524 -62.94369507 240.19337463 C-62.96133557 234.42455277 -62.96604967 228.65579028 -62.96732664 222.88694406 C-62.96875007 219.27863403 -62.97302334 215.670339 -62.97832108 212.0620327 C-62.99681595 199.46183696 -63.00499249 186.86168348 -63.00341797 174.26147461 C-63.0022172 162.53606486 -63.02330833 150.81083936 -63.0549053 139.08547622 C-63.08110252 129.00280849 -63.09178379 118.9202008 -63.09050715 108.83749932 C-63.08999847 102.82266933 -63.09562962 96.80800311 -63.11686325 90.79320717 C-63.13630323 85.13206726 -63.13633063 79.47124634 -63.12182999 73.81009483 C-63.11974784 71.74018256 -63.12440706 69.67025001 -63.1365509 67.60037231 C-63.24356583 48.08565942 -59.91959866 32.23811279 -45.97265625 17.57177734 C-32.73878501 4.66930521 -18.14165178 -0.01297006 0 0 Z " fill="#000000" transform="translate(62.6328125,195.70947265625)"/>
<path d="M0 0 C1.06249466 -0.01533279 1.06249466 -0.01533279 2.14645386 -0.03097534 C4.46794249 -0.05857917 6.78823092 -0.05686888 9.10986328 -0.05224609 C10.73740064 -0.06003092 12.36493398 -0.0687025 13.99246216 -0.07821655 C17.3968017 -0.09310067 20.80072628 -0.09258874 24.20507812 -0.08203125 C28.54853987 -0.07045085 32.89029331 -0.10429547 37.23347282 -0.1507206 C40.5932086 -0.18031589 43.95253869 -0.18192264 47.31238174 -0.17570114 C48.91264349 -0.17672172 50.51292972 -0.18708688 52.11306381 -0.20732498 C67.06152596 -0.37319529 67.06152596 -0.37319529 73.78713989 4.57876587 C78.48370849 9.81328958 80.0538178 13.99957988 80.10449219 20.99414062 C80.11471405 21.7024704 80.12493591 22.41080017 80.13546753 23.14059448 C80.16307136 25.46208312 80.16136107 27.78237155 80.15673828 30.10400391 C80.16452311 31.73154127 80.17319469 33.35907461 80.18270874 34.98660278 C80.19759286 38.39094232 80.19708093 41.79486691 80.18652344 45.19921875 C80.17494304 49.5426805 80.20878766 53.88443394 80.25521278 58.22761345 C80.28480808 61.58734923 80.28641483 64.94667931 80.28019333 68.30652237 C80.28121391 69.90678412 80.29157907 71.50707034 80.31181717 73.10720444 C80.41282205 82.20990446 80.27430356 89.62720403 73.55517578 96.54931641 C68.18786848 101.1338914 62.96381137 101.27562006 56.00830078 101.06103516 C49.24542116 100.05884372 45.42569841 96.70041743 41.05517578 91.67431641 C39.55517578 87.54931641 39.55517578 87.54931641 38.55517578 71.54931641 C-28.76482422 138.86931641 -96.08482422 206.18931641 -165.44482422 275.54931641 C-160.16482422 275.87931641 -154.88482422 276.20931641 -149.44482422 276.54931641 C-144.2208752 279.16129092 -139.66102517 281.82645396 -137.04248047 287.30712891 C-135.38257656 293.53448084 -135.13984717 300.28456816 -137.55029297 306.31494141 C-140.58916347 311.23579338 -144.12827696 314.19780211 -149.44482422 316.54931641 C-153.03536987 317.07070923 -153.03536987 317.07070923 -156.88964844 317.09863281 C-157.59797821 317.10885468 -158.30630798 317.11907654 -159.03610229 317.12960815 C-161.35759093 317.15721199 -163.67787936 317.1555017 -165.99951172 317.15087891 C-167.62704908 317.15866374 -169.25458242 317.16733531 -170.8821106 317.17684937 C-174.28645013 317.19173348 -177.69037472 317.19122155 -181.09472656 317.18066406 C-185.43818831 317.16908366 -189.77994175 317.20292828 -194.12312126 317.24935341 C-197.48285704 317.2789487 -200.84218712 317.28055545 -204.20203018 317.27433395 C-205.80229193 317.27535453 -207.40257815 317.2857197 -209.00271225 317.30595779 C-223.9511744 317.4718281 -223.9511744 317.4718281 -230.67678833 312.51986694 C-235.37335693 307.28534324 -236.94346624 303.09905294 -236.99414062 296.10449219 C-237.00947342 295.04199753 -237.00947342 295.04199753 -237.02511597 293.95803833 C-237.0527198 291.63654969 -237.05100951 289.31626127 -237.04638672 286.99462891 C-237.05417155 285.36709154 -237.06284313 283.7395582 -237.07235718 282.11203003 C-237.0872413 278.70769049 -237.08672937 275.30376591 -237.07617188 271.89941406 C-237.06459148 267.55595231 -237.0984361 263.21419888 -237.14486122 258.87101936 C-237.17445651 255.51128359 -237.17606326 252.1519535 -237.16984177 248.79211044 C-237.17086234 247.19184869 -237.18122751 245.59156247 -237.20146561 243.99142838 C-237.30247049 234.88872835 -237.16395199 227.47142878 -230.44482422 220.54931641 C-225.07751691 215.96474142 -219.85345981 215.82301275 -212.89794922 216.03759766 C-206.13506959 217.03978909 -202.31534684 220.39821539 -197.94482422 225.42431641 C-196.44482422 229.54931641 -196.44482422 229.54931641 -195.44482422 245.54931641 C-128.12482422 178.22931641 -60.80482422 110.90931641 8.55517578 41.54931641 C3.27517578 41.21931641 -2.00482422 40.88931641 -7.44482422 40.54931641 C-12.66877324 37.93734189 -17.22862327 35.27217885 -19.84716797 29.79150391 C-21.50707188 23.56415198 -21.74980127 16.81406465 -19.33935547 10.78369141 C-14.68075604 3.24000761 -8.79557202 0.0637224 0 0 Z " fill="#000000" transform="translate(352.44482421875,79.45068359375)"/>
<path d="M0 0 C1.66094378 -0.00780078 3.32188365 -0.01647549 4.9828186 -0.02597046 C8.43350279 -0.04075565 11.88377704 -0.04041002 15.33447266 -0.02978516 C19.73598034 -0.0181323 24.13582199 -0.05227178 28.53705406 -0.0984745 C31.95510496 -0.12803671 35.37275653 -0.12968245 38.79091263 -0.12345505 C40.4135026 -0.12447446 42.036117 -0.1348172 43.65858078 -0.15507889 C52.79308888 -0.25530726 60.28633585 -0.15796105 67.2265625 6.6015625 C71.81113749 11.96886981 71.95286615 17.19292691 71.73828125 24.1484375 C70.75562246 30.77950901 67.72317967 34.70846459 62.47949219 38.68457031 C56.83662415 41.82419754 50.46318367 41.16491704 44.18359375 41.140625 C42.80985462 41.15055194 41.43612878 41.16250071 40.06242371 41.17636108 C36.45521374 41.20861786 32.84830674 41.21910268 29.2409668 41.22320557 C23.48715635 41.23197759 17.73359405 41.26803308 11.97998619 41.3153801 C9.99066577 41.32776956 8.00127552 41.32663635 6.01191711 41.32510376 C-8.84860972 41.4086493 -21.70774834 43.1333918 -32.953125 53.58203125 C-43.74737674 65.55762814 -43.90350653 79.59049454 -43.87890625 94.84765625 C-43.88979364 97.65171659 -43.90725608 100.45573378 -43.92382812 103.25976562 C-43.94811646 107.65516852 -43.96385081 112.05009587 -43.94848633 116.44555664 C-43.93676218 120.02138728 -43.95437372 123.59605915 -43.99093056 127.17170906 C-44.00360494 129.17503118 -43.98559659 131.178473 -43.96684265 133.18174744 C-44.07358387 141.24819273 -45.22287003 146.57601245 -50.7734375 152.6015625 C-56.14074481 157.18613749 -61.36480191 157.32786615 -68.3203125 157.11328125 C-73.50102181 156.3455517 -77.19832567 154.42349168 -80.7734375 150.6015625 C-84.13350671 145.51728092 -85.27564642 142.29522081 -85.29101562 136.06835938 C-85.2980249 135.35016022 -85.30503418 134.63196106 -85.31225586 133.89199829 C-85.32975406 131.53436743 -85.31823333 129.17795415 -85.3046875 126.8203125 C-85.30738714 125.16231052 -85.31127348 123.50431009 -85.31628418 121.84631348 C-85.32217019 118.37297476 -85.31365436 114.90004841 -85.29492188 111.42675781 C-85.27227534 107.01695118 -85.2851692 102.60812627 -85.30921173 98.19835663 C-85.32381694 94.77149357 -85.31899482 91.34485463 -85.30870056 87.91798401 C-85.3060662 86.29480366 -85.30918453 84.67160172 -85.31861877 83.04844666 C-85.38101624 69.28266697 -83.54026698 56.57355042 -76.9609375 44.2265625 C-76.44708496 43.23015747 -76.44708496 43.23015747 -75.92285156 42.21362305 C-73.08964382 36.86904429 -69.73323185 32.17418216 -65.7734375 27.6015625 C-65.17660156 26.80878906 -64.57976562 26.01601563 -63.96484375 25.19921875 C-48.0061715 6.28207607 -23.72559757 -0.04719215 0 0 Z " fill="#000000" transform="translate(84.7734375,-0.6015625)"/>
<path d="M0 0 C0.71819916 -0.00700928 1.43639832 -0.01401855 2.17636108 -0.02124023 C4.53399195 -0.03873844 6.89040523 -0.0272177 9.24804688 -0.01367188 C10.90604886 -0.01637152 12.56404929 -0.02025786 14.2220459 -0.02526855 C17.69538461 -0.03115457 21.16831097 -0.02263873 24.64160156 -0.00390625 C29.05140819 0.01874029 33.46023311 0.00584642 37.87000275 -0.01819611 C41.2968658 -0.03280131 44.72350474 -0.0279792 48.15037537 -0.01768494 C49.77355571 -0.01505057 51.39675765 -0.0181689 53.01991272 -0.02760315 C66.78256655 -0.08998645 79.49927717 1.74685056 91.84179688 8.33007812 C92.51041748 8.67772217 93.17903809 9.02536621 93.86791992 9.38354492 C99.21811674 12.23711326 103.98107888 15.41658412 108.46679688 19.51757812 C109.80484375 20.71833984 109.80484375 20.71833984 111.16992188 21.94335938 C125.26105102 35.24523128 135.09361156 53.94039712 135.8526516 73.55383682 C135.94085774 77.36882573 135.96544337 81.18213796 135.97070312 84.99804688 C135.98036862 86.66327662 135.99046282 88.32850393 136.0009613 89.99372864 C136.01880226 93.46226917 136.0244941 96.93058683 136.02270508 100.39916992 C136.02239915 104.82424861 136.06351912 109.24789471 136.11502171 113.67263317 C136.14849505 117.10352554 136.15445958 120.53407379 136.1528759 123.96511269 C136.15639293 125.5960927 136.16953198 127.22708384 136.192873 128.85790062 C136.39147134 144.15078801 136.39147134 144.15078801 131.04795837 150.89912415 C126.13949262 155.92335851 122.49566631 156.7936729 115.59179688 157.14257812 C109.76863339 156.96292734 106.04561462 155.89614573 101.33398438 152.51367188 C94.67733285 145.39746073 94.89135732 138.87822244 94.92773438 129.47460938 C94.91780743 128.10087025 94.90585866 126.7271444 94.89199829 125.35343933 C94.85974152 121.74622936 94.8492567 118.13932237 94.84515381 114.53198242 C94.83638178 108.77817198 94.80032629 103.02460967 94.75297928 97.27100182 C94.74058982 95.2816814 94.74172302 93.29229115 94.74325562 91.30293274 C94.65971008 76.4424059 92.93496757 63.58326728 82.48632812 52.33789062 C70.51073124 41.54363889 56.47786483 41.3875091 41.22070312 41.41210938 C38.41664278 41.40122198 35.6126256 41.38375954 32.80859375 41.3671875 C28.41319085 41.34289916 24.0182635 41.32716482 19.62280273 41.3425293 C16.04697209 41.35425344 12.47230023 41.3366419 8.89665031 41.30008507 C6.89332819 41.28741068 4.88988637 41.30541903 2.88661194 41.32417297 C-5.17983335 41.21743176 -10.50765308 40.06814559 -16.53320312 34.51757812 C-21.11777812 29.15027082 -21.25950678 23.92621372 -21.04492188 16.97070312 C-20.27719233 11.78999381 -18.3551323 8.09268996 -14.53320312 4.51757812 C-9.44892154 1.15750892 -6.22686144 0.0153692 0 0 Z " fill="#000000" transform="translate(376.533203125,-0.517578125)"/>
<path d="M0 0 C4.91785162 3.03701764 7.89332868 6.57507872 10.234375 11.89453125 C10.74230957 15.52062988 10.74230957 15.52062988 10.75195312 19.42773438 C10.7589624 20.14593353 10.76597168 20.86413269 10.77319336 21.60409546 C10.79069156 23.96172632 10.77917083 26.3181396 10.765625 28.67578125 C10.76832464 30.33378323 10.77221098 31.99178366 10.77722168 33.64978027 C10.78310769 37.12311899 10.77459186 40.59604534 10.75585938 44.06933594 C10.73321284 48.47914257 10.7461067 52.88796748 10.77014923 57.29773712 C10.78475444 60.72460018 10.77993232 64.15123912 10.76963806 67.57810974 C10.7670037 69.20129009 10.77012203 70.82449203 10.77955627 72.44764709 C10.84193958 86.21030093 9.00510256 98.92701155 2.421875 111.26953125 C2.07423096 111.93815186 1.72658691 112.60677246 1.3684082 113.2956543 C-1.48516013 118.64585111 -4.664631 123.40881326 -8.765625 127.89453125 C-9.56613281 128.7865625 -10.36664063 129.67859375 -11.19140625 130.59765625 C-24.49327816 144.68878539 -43.18844399 154.52134594 -62.8018837 155.28038597 C-66.6168726 155.36859211 -70.43018483 155.39317775 -74.24609375 155.3984375 C-75.9113235 155.40810299 -77.57655081 155.41819719 -79.24177551 155.42869568 C-82.71031605 155.44653663 -86.1786337 155.45222848 -89.6472168 155.45043945 C-94.07229549 155.45013352 -98.49594158 155.4912535 -102.92068005 155.54275608 C-106.35157241 155.57622942 -109.78212067 155.58219396 -113.21315956 155.58061028 C-114.84413957 155.58412731 -116.47513072 155.59726635 -118.10594749 155.62060738 C-133.39883488 155.81920571 -133.39883488 155.81920571 -140.14717102 150.47569275 C-145.17140538 145.56722699 -146.04171977 141.92340069 -146.390625 135.01953125 C-146.21097421 129.19636777 -145.1441926 125.47334899 -141.76171875 120.76171875 C-134.6455076 114.10506723 -128.12626931 114.3190917 -118.72265625 114.35546875 C-117.34891712 114.34554181 -115.97519128 114.33359304 -114.60148621 114.31973267 C-110.99427624 114.28747589 -107.38736924 114.27699107 -103.7800293 114.27288818 C-98.02621885 114.26411616 -92.27265655 114.22806067 -86.51904869 114.18071365 C-84.52972827 114.16832419 -82.54033802 114.1694574 -80.55097961 114.17098999 C-65.69045278 114.08744445 -52.83131416 112.36270195 -41.5859375 101.9140625 C-30.79168576 89.93846561 -30.63555597 75.90559921 -30.66015625 60.6484375 C-30.64926886 57.84437716 -30.63180642 55.04035997 -30.61523438 52.23632812 C-30.59094604 47.84092523 -30.57521169 43.44599788 -30.59057617 39.05053711 C-30.60230032 35.47470647 -30.58468878 31.9000346 -30.54813194 28.32438469 C-30.53545756 26.32106257 -30.55346591 24.31762075 -30.57221985 22.31434631 C-30.46547863 14.24790102 -29.31619247 8.9200813 -23.765625 2.89453125 C-17.29271618 -2.6344117 -7.84970384 -3.13766411 0 0 Z " fill="#000000" transform="translate(501.765625,357.10546875)"/>
<path d="M0 0 C4.89309924 3.02173182 7.99680271 6.54461725 10.234375 11.89453125 C10.7901864 14.99626904 10.80225292 18.02979599 10.78369141 21.17529297 C10.7990242 22.53039474 10.7990242 22.53039474 10.81466675 23.91287231 C10.84234683 26.88359468 10.84055407 29.85338317 10.8359375 32.82421875 C10.84371786 34.90016013 10.85238853 36.97609834 10.86190796 39.05203247 C10.87680842 43.3979119 10.87626775 47.74346631 10.86572266 52.08935547 C10.8541387 57.64335548 10.88799056 63.19602036 10.934412 68.74979973 C10.9639569 73.03597722 10.9656207 77.32183578 10.95939255 81.60809708 C10.96041556 83.65492521 10.97082694 85.70177201 10.99101639 87.74850082 C11.1580721 107.05260946 11.1580721 107.05260946 5.81430054 113.42068481 C-0.22017155 119.04999137 -5.11547356 119.65913699 -13.3125 119.40625 C-18.49320931 118.63852045 -22.19051317 116.71646043 -25.765625 112.89453125 C-29.58648301 107.3079088 -30.35443355 103.30624347 -30.31494141 96.61376953 C-30.32516327 95.71036835 -30.33538513 94.80696716 -30.34591675 93.87619019 C-30.37359683 90.90546782 -30.37180407 87.93567933 -30.3671875 84.96484375 C-30.37496786 82.88890237 -30.38363853 80.81296416 -30.39315796 78.73703003 C-30.40805842 74.3911506 -30.40751775 70.04559619 -30.39697266 65.69970703 C-30.3853887 60.14570702 -30.41924056 54.59304214 -30.465662 49.03926277 C-30.4952069 44.75308528 -30.4968707 40.46722672 -30.49064255 36.18096542 C-30.49166556 34.13413729 -30.50207694 32.08729049 -30.52226639 30.04056168 C-30.6893221 10.73645304 -30.6893221 10.73645304 -25.34555054 4.36837769 C-18.35137696 -2.15619424 -9.07745747 -3.62841873 0 0 Z " fill="#000000" transform="translate(501.765625,197.10546875)"/>
<path d="M0 0 C0.90340118 -0.01022186 1.80680237 -0.02044373 2.73757935 -0.03097534 C5.70830171 -0.05865542 8.6780902 -0.05686266 11.64892578 -0.05224609 C13.72486716 -0.06002646 15.80080537 -0.06869712 17.8767395 -0.07821655 C22.22261893 -0.09311701 26.56817334 -0.09257634 30.9140625 -0.08203125 C36.46806252 -0.07044729 42.02072739 -0.10429915 47.57450676 -0.1507206 C51.86068425 -0.18026549 56.14654281 -0.18192929 60.43280411 -0.17570114 C62.47963225 -0.17672415 64.52647904 -0.18713553 66.57320786 -0.20732498 C85.87731649 -0.3743807 85.87731649 -0.3743807 92.24539185 4.96939087 C97.8746984 11.00386296 98.48384402 15.89916497 98.23095703 24.09619141 C97.46322748 29.27690072 95.54116746 32.97420457 91.71923828 36.54931641 C86.13261583 40.37017442 82.1309505 41.13812496 75.43847656 41.09863281 C74.08337479 41.11396561 74.08337479 41.11396561 72.70089722 41.12960815 C69.73017485 41.15728824 66.76038636 41.15549548 63.78955078 41.15087891 C61.7136094 41.15865927 59.63767119 41.16732994 57.56173706 41.17684937 C53.21585764 41.19174983 48.87030322 41.19120915 44.52441406 41.18066406 C38.97041405 41.1690801 33.41774917 41.20293196 27.8639698 41.24935341 C23.57779231 41.27889831 19.29193375 41.2805621 15.00567245 41.27433395 C12.95884432 41.27535697 10.91199753 41.28576834 8.86526871 41.30595779 C-10.43883993 41.47301351 -10.43883993 41.47301351 -16.80691528 36.12924194 C-22.43622184 30.09476985 -23.04536745 25.19946785 -22.79248047 17.00244141 C-22.02475092 11.82173209 -20.1026909 8.12442824 -16.28076172 4.54931641 C-10.69413927 0.7284584 -6.69247394 -0.03949215 0 0 Z " fill="#000000" transform="translate(218.28076171875,-0.54931640625)"/>
</svg>
