<?xml version="1.0" encoding="UTF-8"?>
<svg version="1.1" xmlns="http://www.w3.org/2000/svg" width="512" height="512">
<path d="M0 0 C1.61872929 -0.00346256 3.23745622 -0.00823112 4.85617828 -0.01418173 C9.27538071 -0.02663925 13.69438735 -0.02054541 18.11359024 -0.01122308 C22.89076272 -0.0044113 27.66790247 -0.01492434 32.44506836 -0.02316284 C41.79212029 -0.03647971 51.13909982 -0.03363156 60.48615456 -0.02492492 C68.08493263 -0.01814072 75.68369046 -0.01723484 83.2824707 -0.02049637 C84.36532176 -0.02095607 85.44817281 -0.02141577 86.56383753 -0.0218894 C88.76385435 -0.0228486 90.96387117 -0.02382124 93.16388798 -0.02480717 C113.77754336 -0.03335507 134.39115867 -0.02353634 155.00480747 -0.00740607 C172.67965733 0.00599656 190.35444808 0.0036683 208.02929688 -0.01016235 C228.57084882 -0.02622876 249.11236568 -0.03253115 269.65392303 -0.02332556 C271.84569803 -0.02236995 274.03747304 -0.02142684 276.22924805 -0.02049637 C277.30755087 -0.02003354 278.3858537 -0.01957072 279.49683237 -0.01909386 C287.0835902 -0.01650716 294.67032571 -0.02086808 302.25708008 -0.02793503 C311.50693486 -0.036362 320.7567133 -0.0340447 330.00655937 -0.0180928 C334.72299271 -0.01022622 339.4392989 -0.00709092 344.1557312 -0.01704025 C348.47855699 -0.02602114 352.80113854 -0.02099873 357.12394238 -0.0051076 C358.68233087 -0.00177411 360.24074028 -0.00342136 361.79911518 -0.01073496 C373.87259686 -0.06302215 384.89355493 1.34101925 395.75585938 6.88095093 C396.42738037 7.2206189 397.09890137 7.56028687 397.79077148 7.9102478 C404.83449678 11.66600866 410.24985204 16.67195714 415.75585938 22.38095093 C416.75166016 23.33034546 416.75166016 23.33034546 417.76757812 24.29891968 C421.78592264 28.3895041 424.3995742 33.07368662 427.00585938 38.13095093 C427.33553711 38.76218872 427.66521484 39.39342651 428.00488281 40.04379272 C433.45903042 51.17120287 434.19399919 62.43933106 434.1368103 74.62509155 C434.14027286 76.24382085 434.14504142 77.86254778 434.15099204 79.48126984 C434.16344955 83.90047226 434.15735571 88.31947891 434.14803338 92.73868179 C434.1412216 97.51585427 434.15173464 102.29299402 434.15997314 107.07015991 C434.17329001 116.41721185 434.17044186 125.76419138 434.16173522 135.11124611 C434.15495102 142.71002419 434.15404514 150.30878202 434.15730667 157.90756226 C434.15776637 158.99041331 434.15822607 160.07326436 434.1586997 161.18892908 C434.15965891 163.3889459 434.16063155 165.58896272 434.16161747 167.78897953 C434.17016537 188.40263491 434.16034665 209.01625022 434.14421637 229.62989902 C434.13081375 247.30474889 434.13314201 264.97953963 434.14697266 282.65438843 C434.16303906 303.19594038 434.16934145 323.73745723 434.16013587 344.27901459 C434.15918025 346.47078959 434.15823714 348.66256459 434.15730667 350.8543396 C434.15684384 351.93264243 434.15638102 353.01094525 434.15590417 354.12192392 C434.15331746 361.70868175 434.15767838 369.29541726 434.16474533 376.88217163 C434.17317231 386.13202641 434.170855 395.38180485 434.1549031 404.63165092 C434.14703653 409.34808426 434.14390122 414.06439045 434.15385056 418.78082275 C434.16283144 423.10364855 434.15780904 427.42623009 434.1419179 431.74903393 C434.13858441 433.30742243 434.14023167 434.86583183 434.14754526 436.42420673 C434.19983246 448.49768841 432.79579106 459.51864648 427.25585938 470.38095093 C426.74635742 471.38823242 426.74635742 471.38823242 426.2265625 472.41586304 C422.47080164 479.45958833 417.46485316 484.87494359 411.75585938 490.38095093 C410.80646484 491.37675171 410.80646484 491.37675171 409.83789062 492.39266968 C405.74730621 496.41101419 401.06312369 499.02466576 396.00585938 501.63095093 C395.37462158 501.96062866 394.74338379 502.2903064 394.09301758 502.62997437 C382.96560743 508.08412197 371.69747924 508.81909074 359.51171875 508.76190186 C357.89298946 508.76536441 356.27426253 508.77013298 354.65554047 508.77608359 C350.23633804 508.7885411 345.8173314 508.78244726 341.39812851 508.77312493 C336.62095603 508.76631316 331.84381628 508.77682619 327.06665039 508.7850647 C317.71959846 508.79838156 308.37261893 508.79553342 299.02556419 508.78682677 C291.42678612 508.78004258 283.82802829 508.77913669 276.22924805 508.78239822 C275.14639699 508.78285792 274.06354594 508.78331762 272.94788122 508.78379125 C270.7478644 508.78475046 268.54784758 508.7857231 266.34783077 508.78670903 C245.73417539 508.79525693 225.12056008 508.7854382 204.50691128 508.76930793 C186.83206142 508.7559053 169.15727067 508.75823356 151.48242188 508.77206421 C130.94086993 508.78813062 110.39935307 508.79443301 89.85779572 508.78522742 C87.66602072 508.7842718 85.47424571 508.78332869 83.2824707 508.78239822 C82.20416788 508.7819354 81.12586505 508.78147257 80.01488638 508.78099572 C72.42812855 508.77840902 64.84139304 508.78276993 57.25463867 508.78983688 C48.00478389 508.79826386 38.75500545 508.79594655 29.50515938 508.77999465 C24.78872604 508.77212808 20.07241985 508.76899277 15.35598755 508.77894211 C11.03316176 508.78792299 6.71058021 508.78290059 2.38777637 508.76700945 C0.82938788 508.76367597 -0.72902153 508.76532322 -2.28739643 508.77263682 C-14.36087811 508.82492401 -25.38183618 507.42088261 -36.24414062 501.88095093 C-36.91566162 501.54128296 -37.58718262 501.20161499 -38.27905273 500.85165405 C-45.32277803 497.0958932 -50.73813329 492.08994471 -56.24414062 486.38095093 C-56.90800781 485.74802124 -57.571875 485.11509155 -58.25585938 484.46298218 C-62.27420389 480.37239776 -64.88785545 475.68821524 -67.49414062 470.63095093 C-67.98865723 469.68409424 -67.98865723 469.68409424 -68.49316406 468.71810913 C-73.94731167 457.59069898 -74.68228044 446.32257079 -74.62509155 434.1368103 C-74.62855411 432.51808101 -74.63332267 430.89935408 -74.63927329 429.28063202 C-74.6517308 424.86142959 -74.64563696 420.44242295 -74.63631463 416.02322006 C-74.62950285 411.24604759 -74.64001589 406.46890783 -74.64825439 401.69174194 C-74.66157126 392.34469001 -74.65872311 382.99771048 -74.65001647 373.65065575 C-74.64323227 366.05187767 -74.64232639 358.45311984 -74.64558792 350.8543396 C-74.64604762 349.77148855 -74.64650732 348.6886375 -74.64698095 347.57297277 C-74.64794016 345.37295595 -74.6489128 343.17293914 -74.64989872 340.97292233 C-74.65844662 320.35926695 -74.6486279 299.74565164 -74.63249762 279.13200283 C-74.619095 261.45715297 -74.62142326 243.78236222 -74.63525391 226.10751343 C-74.65132031 205.56596148 -74.6576227 185.02444462 -74.64841712 164.48288727 C-74.6474615 162.29111227 -74.64651839 160.09933727 -74.64558792 157.90756226 C-74.64512509 156.82925943 -74.64466227 155.7509566 -74.64418542 154.63997793 C-74.64159871 147.0532201 -74.64595963 139.4664846 -74.65302658 131.87973022 C-74.66145356 122.62987544 -74.65913625 113.380097 -74.64318435 104.13025093 C-74.63531778 99.4138176 -74.63218247 94.6975114 -74.64213181 89.9810791 C-74.65111269 85.65825331 -74.64609029 81.33567176 -74.63019915 77.01286793 C-74.62686566 75.45447943 -74.62851292 73.89607002 -74.63582651 72.33769512 C-74.68811371 60.26421345 -73.28407231 49.24325537 -67.74414062 38.38095093 C-67.40447266 37.70942993 -67.06480469 37.03790894 -66.71484375 36.34603882 C-62.95908289 29.30231352 -57.95313441 23.88695827 -52.24414062 18.38095093 C-51.61121094 17.71708374 -50.97828125 17.05321655 -50.32617188 16.36923218 C-46.23558746 12.35088766 -41.55140494 9.7372361 -36.49414062 7.13095093 C-35.86290283 6.80127319 -35.23166504 6.47159546 -34.58129883 6.13192749 C-23.45388868 0.67777988 -12.18576049 -0.05718889 0 0 Z M-43.99414062 28.88095093 C-44.73664062 29.70595093 -45.47914062 30.53095093 -46.24414062 31.38095093 C-46.70046875 31.83341187 -47.15679687 32.2858728 -47.62695312 32.75204468 C-61.53937796 47.35644875 -62.40022102 66.43372982 -62.37785339 85.45999146 C-62.37972427 86.97657142 -62.38202608 88.4931509 -62.38471872 90.00972962 C-62.39080882 94.15589225 -62.39070643 98.30203463 -62.38952434 102.4482007 C-62.38931963 106.92822865 -62.3948458 111.40825021 -62.39958191 115.88827515 C-62.4078736 124.65739012 -62.41063608 133.42649837 -62.41119429 142.19561693 C-62.41167013 149.32626644 -62.41372828 156.45691375 -62.41689491 163.58756256 C-62.42569727 183.82177337 -62.43031492 204.05597888 -62.42956444 224.29019162 C-62.42952448 225.38007383 -62.42948453 226.46995604 -62.42944336 227.59286499 C-62.42940248 228.68408386 -62.4293616 229.77530274 -62.42931948 230.89958885 C-62.42891308 248.58192073 -62.43848223 266.2642313 -62.45258173 283.94655702 C-62.46695789 302.11980214 -62.47385123 320.29303689 -62.47298795 338.46628785 C-62.47265642 348.66229544 -62.47538424 358.85828069 -62.486166 369.05428314 C-62.4952873 377.73538094 -62.49743285 386.41644627 -62.49065658 395.09754679 C-62.48739967 399.52255566 -62.48730464 403.9475023 -62.49600983 408.37250519 C-62.50391247 412.43147097 -62.50240528 416.49032558 -62.49372569 420.54928878 C-62.49219896 422.0095259 -62.49397531 423.46977147 -62.49958577 424.92999861 C-62.57465253 445.87188351 -59.23928646 463.20307593 -45.24414062 479.38095093 C-28.4457324 493.95787575 -11.75883539 496.53979863 9.79730225 496.5146637 C11.32198144 496.51653402 12.84666016 496.5188356 14.37133813 496.52152902 C18.54449383 496.52762603 22.71762943 496.52751591 26.89078856 496.52633464 C31.39808172 496.52613011 35.90536852 496.53165445 40.41265869 496.53639221 C49.23705482 496.54468776 58.06144426 496.54744656 66.88584396 496.54800459 C74.06086237 496.54848026 81.23587859 496.55053756 88.4108963 496.55370522 C108.76675597 496.56250872 129.12261038 496.56712505 149.47847196 496.56637474 C151.12349846 496.56631481 151.12349846 496.56631481 152.80175781 496.56625366 C154.44879969 496.56619234 154.44879969 496.56619234 156.12911513 496.56612978 C173.92211704 496.56572337 191.71509778 496.57529238 209.50809357 496.58939203 C227.7909134 496.60376517 246.07372292 496.6106617 264.35654855 496.60979825 C274.61569631 496.60946661 284.87482188 496.61219926 295.13396454 496.6229763 C303.86891387 496.63209364 312.60383095 496.63424641 321.338783 496.62746688 C325.7920146 496.62420794 330.24518436 496.62412234 334.69841003 496.63282013 C338.7820355 496.64071374 342.86555038 496.63922466 346.94917324 496.630536 C348.4195166 496.62900729 349.88986833 496.63079321 351.36020181 496.63639607 C371.91295469 496.70947242 388.8907573 493.10552336 404.75585938 479.38095093 C419.75947163 462.09082927 421.91549381 445.35129608 421.88957214 423.3019104 C421.89144302 421.78533044 421.89374483 420.26875096 421.89643747 418.75217223 C421.90252757 414.60600961 421.90242518 410.45986723 421.90124309 406.31370115 C421.90103838 401.83367321 421.90656455 397.35365165 421.91130066 392.87362671 C421.91959235 384.10451174 421.92235483 375.33540349 421.92291304 366.56628492 C421.92338888 359.43563541 421.92544703 352.30498811 421.92861366 345.17433929 C421.93741602 324.94012849 421.94203367 304.70592297 421.94128319 284.47171023 C421.94124323 283.38182802 421.94120328 282.29194581 421.94116211 281.16903687 C421.94112123 280.07781799 421.94108035 278.98659912 421.94103823 277.862313 C421.94063183 260.17998113 421.95020098 242.49767055 421.96430048 224.81534484 C421.97867664 206.64209971 421.98556998 188.46886496 421.9847067 170.295614 C421.98437517 160.09960642 421.98710299 149.90362117 421.99788475 139.70761871 C422.00700605 131.02652092 422.0091516 122.34545559 422.00237533 113.66435507 C421.99911842 109.2393462 421.99902339 104.81439955 422.00772858 100.38939667 C422.01563122 96.33043088 422.01412403 92.27157627 422.00544444 88.21261308 C422.00391771 86.75237596 422.00569406 85.29213039 422.01130452 83.83190325 C422.08637128 62.89001834 418.75100521 45.55882593 404.75585938 29.38095093 C387.95972026 14.80599515 371.27460857 12.22209416 349.72114563 12.24723816 C348.19717912 12.24536783 346.6732131 12.24306624 345.14924783 12.24037284 C340.97802274 12.23427582 336.80681776 12.23438595 332.63558924 12.23556721 C328.13032196 12.23577175 323.62506105 12.23024737 319.11979675 12.22550964 C310.29907563 12.21721393 301.4783612 12.21445529 292.6576365 12.21389727 C285.48501036 12.21342157 278.31238642 12.21136416 271.13976097 12.20819664 C250.78896696 12.19939284 230.43817822 12.19477681 210.08738229 12.19552711 C208.99096069 12.19556707 207.89453908 12.19560703 206.76489258 12.19564819 C205.11824417 12.19570951 205.11824417 12.19570951 203.43833014 12.19577207 C185.65247032 12.19617842 167.86663168 12.1866111 150.08077798 12.17250983 C131.80360338 12.15813376 113.5264391 12.15124033 95.2492587 12.1521036 C84.99399145 12.15243516 74.73874641 12.1497063 64.48348427 12.13892555 C55.75112537 12.12980434 47.01879874 12.12765859 38.28643713 12.13443498 C33.83510688 12.13769206 29.38383849 12.13778631 24.93251419 12.12908173 C20.84945323 12.12117974 16.76650279 12.12268562 12.6834444 12.13136586 C11.21442914 12.13289275 9.74540547 12.13111565 8.27640013 12.12550578 C-11.90371166 12.05360896 -28.67607721 14.95543873 -43.99414062 28.88095093 Z " fill="#000000" transform="translate(76.244140625,1.619049072265625)"/>
<path d="M0 0 C0.65157862 -0.00265183 1.30315723 -0.00530365 1.97448066 -0.00803584 C4.17304749 -0.01573772 6.37155855 -0.01628835 8.57013798 -0.01688576 C10.15634887 -0.02089982 11.74255873 -0.02533795 13.32876736 -0.03016531 C17.6998287 -0.04214337 22.070879 -0.04778214 26.44195354 -0.05234647 C31.15179316 -0.05829805 35.86161954 -0.06990916 40.57145023 -0.08063698 C51.95337138 -0.10517352 63.33529691 -0.11979118 74.71723637 -0.13269705 C77.93196896 -0.13640845 81.14670111 -0.14038174 84.36143327 -0.14444971 C104.32267467 -0.16968874 124.28391675 -0.19174286 144.24517059 -0.20417786 C148.87018111 -0.20710759 153.4951916 -0.21006924 158.12020206 -0.21308327 C159.26973514 -0.21382932 160.41926821 -0.21457537 161.60363562 -0.21534403 C180.21898106 -0.22799343 198.8342309 -0.2612099 217.44953167 -0.3028851 C236.56045495 -0.34531911 255.67132931 -0.36887471 274.78229958 -0.37409842 C285.51272498 -0.37751117 296.24300106 -0.38925013 306.97338009 -0.42220116 C316.11367806 -0.45022312 325.2537961 -0.46119161 334.39413368 -0.4500057 C339.05592338 -0.44482431 343.71733642 -0.44767197 348.37907124 -0.47247124 C352.65241746 -0.49501401 356.92511756 -0.49418513 361.19847549 -0.47526737 C362.73897488 -0.47247435 364.27951856 -0.4780269 365.81994694 -0.4930803 C379.13762457 -0.61519621 389.63809038 2.13522519 399.43685246 11.52373314 C405.25251194 18.43434805 408.75509091 26.50660514 408.77308559 35.50094318 C408.77573742 36.1525218 408.77838925 36.80410042 408.78112143 37.47542384 C408.78882331 39.67399067 408.78937395 41.87250173 408.78997135 44.07108116 C408.79398541 45.65729205 408.79842354 47.24350192 408.80325091 48.82971054 C408.81522896 53.20077188 408.82086773 57.57182218 408.82543206 61.94289672 C408.83138365 66.65273634 408.84299475 71.36256272 408.85372257 76.07239342 C408.87825911 87.45431456 408.89287678 98.83624009 408.90578264 110.21817955 C408.90949405 113.43291214 408.91346733 116.6476443 408.91753531 119.86237645 C408.94277433 139.82361785 408.96482845 159.78485994 408.97726345 179.74611378 C408.98019318 184.37112429 408.98315483 188.99613479 408.98616886 193.62114525 C408.98691491 194.77067832 408.98766096 195.92021139 408.98842962 197.1045788 C409.00107903 215.71992425 409.0342955 234.33517408 409.07597069 252.95047485 C409.1184047 272.06139813 409.1419603 291.1722725 409.14718401 310.28324276 C409.15059676 321.01366817 409.16233573 331.74394425 409.19528675 342.47432327 C409.22330871 351.61462124 409.2342772 360.75473928 409.22309129 369.89507686 C409.2179099 374.55686656 409.22075756 379.21827961 409.24555683 383.88001442 C409.2680996 388.15336064 409.26727072 392.42606074 409.24835296 396.69941867 C409.24555994 398.23991807 409.2511125 399.78046175 409.2661659 401.32089012 C409.3882818 414.63856775 406.6378604 425.13903356 397.24935246 434.93779564 C390.33873754 440.75345513 382.26648046 444.25603409 373.27214241 444.27402878 C372.62056379 444.2766806 371.96898518 444.27933243 371.29766175 444.28206462 C369.09909492 444.2897665 366.90058386 444.29031713 364.70200443 444.29091454 C363.11579354 444.2949286 361.52958368 444.29936673 359.94337505 444.30419409 C355.57231371 444.31617215 351.20126341 444.32181092 346.83018887 444.32637525 C342.12034925 444.33232683 337.41052287 444.34393794 332.70069218 444.35466576 C321.31877103 444.3792023 309.9368455 444.39381996 298.55490604 444.40672582 C295.34017345 444.41043723 292.1254413 444.41441052 288.91070914 444.41847849 C268.94946774 444.44371752 248.98822566 444.46577163 229.02697182 444.47820663 C224.4019613 444.48113636 219.77695081 444.48409802 215.15194035 444.48711205 C214.00240727 444.4878581 212.8528742 444.48860415 211.66850679 444.4893728 C193.05316135 444.50202221 174.43791151 444.53523868 155.82261074 444.57691388 C136.71168746 444.61934788 117.6008131 444.64290348 98.48984283 444.6481272 C87.75941743 444.65153995 77.02914135 444.66327891 66.29876232 444.69622993 C57.15846436 444.72425189 48.01834631 444.73522039 38.87800873 444.72403447 C34.21621903 444.71885308 29.55480599 444.72170075 24.89307117 444.74650002 C20.61972495 444.76904279 16.34702485 444.76821391 12.07366692 444.74929614 C10.53316753 444.74650313 8.99262385 444.75205568 7.45219547 444.76710908 C-5.86548216 444.88922499 -16.36594797 442.13880359 -26.16471004 432.75029564 C-31.98036953 425.83968073 -35.4829485 417.76742364 -35.50094318 408.77308559 C-35.50359501 408.12150698 -35.50624684 407.46992836 -35.50897902 406.79860494 C-35.5166809 404.60003811 -35.51723154 402.40152705 -35.51782894 400.20294762 C-35.521843 398.61673673 -35.52628113 397.03052686 -35.5311085 395.44431823 C-35.54308655 391.07325689 -35.54872532 386.7022066 -35.55328965 382.33113205 C-35.55924123 377.62129244 -35.57085234 372.91146606 -35.58158016 368.20163536 C-35.6061167 356.81971422 -35.62073437 345.43778869 -35.63364023 334.05584922 C-35.63735164 330.84111664 -35.64132492 327.62638448 -35.64539289 324.41165233 C-35.67063192 304.45041092 -35.69268604 284.48916884 -35.70512104 264.527915 C-35.70805077 259.90290448 -35.71101242 255.27789399 -35.71402645 250.65288353 C-35.7147725 249.50335046 -35.71551855 248.35381739 -35.71628721 247.16944998 C-35.72893662 228.55410453 -35.76215309 209.93885469 -35.80382828 191.32355393 C-35.84626229 172.21263065 -35.86981789 153.10175628 -35.8750416 133.99078602 C-35.87845435 123.26036061 -35.89019332 112.53008453 -35.92314434 101.79970551 C-35.9511663 92.65940754 -35.96213479 83.5192895 -35.95094888 74.37895191 C-35.94576749 69.71716221 -35.94861515 65.05574917 -35.97341442 60.39401436 C-35.99595719 56.12066814 -35.99512831 51.84796804 -35.97621055 47.57461011 C-35.97341753 46.03411071 -35.97897009 44.49356703 -35.99402349 42.95313866 C-36.11613939 29.63546103 -33.36571799 19.13499522 -23.97721004 9.33623314 C-17.06659513 3.52057365 -8.99433805 0.01799468 0 0 Z M-17.12174129 21.95732689 C-24.59773367 30.87795547 -23.65463067 42.1838634 -23.61789608 53.24297142 C-23.62020362 54.7624031 -23.62338211 56.28183366 -23.62735057 57.8012619 C-23.63566688 61.9551721 -23.63158774 66.1089899 -23.62537813 70.26290035 C-23.62084166 74.75103493 -23.62784333 79.23915393 -23.63333797 83.72728539 C-23.64222086 92.5111103 -23.64031488 101.294901 -23.63451269 110.07872725 C-23.62999187 117.21894772 -23.62938512 124.35915862 -23.63156033 131.49938011 C-23.63186679 132.51647092 -23.63217326 133.53356173 -23.63248901 134.58147347 C-23.63312848 136.64781682 -23.6337769 138.71416017 -23.63443419 140.78050351 C-23.64013425 160.14652916 -23.63358468 179.51253586 -23.62283346 198.8785584 C-23.61389825 215.48750634 -23.61545038 232.09642633 -23.62467098 248.70537376 C-23.63537933 268.00315562 -23.63958496 287.30092088 -23.63344646 306.59870529 C-23.63280937 308.65735308 -23.63218063 310.71600087 -23.63156033 312.77464867 C-23.63125177 313.78748425 -23.63094322 314.80031983 -23.63062532 315.84384739 C-23.62890008 322.97365793 -23.63180981 330.10345792 -23.63651943 337.23326683 C-23.64213453 345.92472989 -23.64059856 354.61615683 -23.62995794 363.30761576 C-23.62470972 367.74022757 -23.62263002 372.17277921 -23.62925625 376.60539055 C-23.63523539 380.66661835 -23.63190827 384.72773045 -23.62130114 388.78894782 C-23.61907543 390.25449566 -23.62018469 391.72005336 -23.62505272 393.1855948 C-23.78639394 410.11698936 -23.78639394 410.11698936 -15.36392879 424.13701439 C-5.99489812 433.18436161 5.39301743 432.43200089 17.74202824 432.39098167 C19.26145991 432.39328922 20.78089047 432.39646771 22.30031872 432.40043616 C26.45422892 432.40875247 30.60804672 432.40467333 34.76195717 432.39846373 C39.25009174 432.39392725 43.73821075 432.40092892 48.2263422 432.40642357 C57.01016712 432.41530645 65.79395781 432.41340048 74.57778406 432.40759829 C81.71800454 432.40307746 88.85821543 432.40247072 95.99843693 432.40464592 C97.01552774 432.40495239 98.03261854 432.40525885 99.08053029 432.4055746 C101.14687364 432.40621407 103.21321698 432.4068625 105.27956033 432.40751979 C124.64558598 432.41321985 144.01159267 432.40667027 163.37761521 432.39591905 C179.98656316 432.38698384 196.59548314 432.38853597 213.20443058 432.39775658 C232.50221244 432.40846493 251.79997769 432.41267055 271.09776211 432.40653205 C273.1564099 432.40589497 275.21505769 432.40526622 277.27370548 432.40464592 C278.79295885 432.40418309 278.79295885 432.40418309 280.34290421 432.40371092 C287.47271475 432.40198567 294.60251474 432.4048954 301.73232365 432.40960503 C310.4237867 432.41522012 319.11521364 432.41368416 327.80667257 432.40304354 C332.23928439 432.39779532 336.67183603 432.39571561 341.10444736 432.40234184 C345.16567516 432.40832098 349.22678727 432.40499387 353.28800464 432.39438674 C354.75355247 432.39216103 356.21911017 432.39327028 357.68465161 432.39813831 C374.61604618 432.55947954 374.61604618 432.55947954 388.63607121 424.13701439 C397.68341843 414.76798371 396.9310577 403.38006816 396.89003849 391.03105736 C396.89234603 389.51162568 396.89552452 387.99219512 396.89949298 386.47276688 C396.90780929 382.31885667 396.90373015 378.16503887 396.89752054 374.01112843 C396.89298407 369.52299385 396.89998574 365.03487485 396.90548038 360.54674339 C396.91436327 351.76291847 396.91245729 342.97912778 396.9066551 334.19530153 C396.90213428 327.05508106 396.90152753 319.91487016 396.90370274 312.77464867 C396.90416244 311.24901245 396.90416244 311.24901245 396.90463142 309.69255531 C396.90527089 307.62621196 396.90591931 305.55986861 396.9065766 303.49352527 C396.91227666 284.12749962 396.90572709 264.76149292 396.89497587 245.39547038 C396.88604066 228.78652244 396.88759279 212.17760245 396.89681339 195.56865501 C396.90752174 176.27087316 396.91172737 156.9731079 396.90558887 137.67532349 C396.90495178 135.6166757 396.90432304 133.55802791 396.90370274 131.49938011 C396.90339418 130.48654453 396.90308563 129.47370895 396.90276773 128.43018138 C396.90104249 121.30037084 396.90395222 114.17057085 396.90866184 107.04076195 C396.91427694 98.34929889 396.91274098 89.65787195 396.90210035 80.96641302 C396.89685213 76.53380121 396.89477243 72.10124957 396.90139866 67.66863823 C396.9073778 63.60741043 396.90405068 59.54629833 396.89344355 55.48508096 C396.89121785 54.01953312 396.8923271 52.55397542 396.89719513 51.08843398 C397.05853635 34.15703942 397.05853635 34.15703942 388.63607121 20.13701439 C379.26704053 11.08966717 367.87912498 11.84202789 355.53011417 11.8830471 C354.0106825 11.88073956 352.49125194 11.87756107 350.97182369 11.87359262 C346.81791349 11.86527631 342.66409569 11.86935544 338.51018524 11.87556505 C334.02205067 11.88010153 329.53393166 11.87309986 325.04580021 11.86760521 C316.26197529 11.85872232 307.4781846 11.8606283 298.69435835 11.86643049 C291.55413788 11.87095132 284.41392698 11.87155806 277.27370548 11.86938286 C276.25661467 11.86907639 275.23952387 11.86876993 274.19161212 11.86845417 C272.12526877 11.86781471 270.05892543 11.86716628 267.99258208 11.86650899 C248.62655644 11.86080893 229.26054974 11.86735851 209.8945272 11.87810972 C193.28557925 11.88704494 176.67665927 11.8854928 160.06771183 11.8762722 C140.76992997 11.86556385 121.47216472 11.86135822 102.1743803 11.86749673 C100.11573251 11.86813381 98.05708472 11.86876255 95.99843693 11.86938286 C94.47918356 11.86984568 94.47918356 11.86984568 92.9292382 11.87031786 C85.79942766 11.8720431 78.66962767 11.86913337 71.53981876 11.86442375 C62.84835571 11.85880865 54.15692877 11.86034462 45.46546984 11.87098524 C41.03285802 11.87623346 36.60030638 11.87831317 32.16769505 11.87168694 C28.10646725 11.86570779 24.04535514 11.86903491 19.98413777 11.87964204 C18.51858994 11.88186775 17.05303224 11.88075849 15.5874908 11.87589046 C2.329515 11.83524574 -7.58881578 12.08545291 -17.12174129 21.95732689 Z " fill="#000000" transform="translate(69.36392879486084,33.862985610961914)"/>
<path d="M0 0 C5.00305473 4.18860396 7.47752952 7.76015833 8.6875 14.25 C8.52415128 24.37762094 2.40520072 31.94431798 -3.4375 39.8125 C-4.59912303 41.39866644 -5.75925416 42.98592642 -6.91796875 44.57421875 C-7.49208496 45.36103027 -8.06620117 46.1478418 -8.65771484 46.95849609 C-11.07767878 50.30959989 -13.42090629 53.7103559 -15.75 57.125 C-21.08985553 64.94682987 -26.5154476 72.70687456 -31.953125 80.4609375 C-32.49388672 81.24178711 -33.03464844 82.02263672 -33.59179688 82.82714844 C-34.81153918 84.5446176 -36.07268344 86.23302081 -37.36132812 87.89941406 C-38.02068359 88.77049805 -38.68003906 89.64158203 -39.359375 90.5390625 C-39.97135742 91.3223291 -40.58333984 92.1055957 -41.21386719 92.91259766 C-42.60952863 95.23480574 -42.60952863 95.23480574 -41.64257812 97.82543945 C-40.50396924 99.90097631 -39.36798886 101.83636786 -37.984375 103.75390625 C-37.5217627 104.40141846 -37.05915039 105.04893066 -36.58251953 105.71606445 C-36.08091309 106.40788818 -35.57930664 107.09971191 -35.0625 107.8125 C-33.97085022 109.33818121 -32.87972562 110.8642383 -31.7890625 112.390625 C-31.21833008 113.18662109 -30.64759766 113.98261719 -30.05957031 114.80273438 C-27.15664737 118.8690982 -24.29811551 122.96631724 -21.4375 127.0625 C-20.26179854 128.74354539 -19.08601653 130.42453445 -17.91015625 132.10546875 C-17.32121582 132.94770996 -16.73227539 133.78995117 -16.12548828 134.65771484 C-13.04347013 139.06451106 -9.95910747 143.46966587 -6.875 147.875 C-3.58412685 152.57617908 -3.58412685 152.57617908 -1.97314453 154.88378906 C-0.78373345 156.57855122 0.41420071 158.26734423 1.61767578 159.95214844 C2.56682861 161.28681152 2.56682861 161.28681152 3.53515625 162.6484375 C4.11402588 163.45716309 4.69289551 164.26588867 5.28930664 165.09912109 C8.6700222 170.29976787 8.24532127 176.26891638 7.6875 182.25 C6.088295 187.15191097 2.94012792 190.41491472 -1.3125 193.25 C-7.38341816 195.27363939 -13.97649664 195.04186555 -20 193 C-25.28029526 189.29122119 -28.68894416 183.47424112 -32.3125 178.25 C-33.52584806 176.51679153 -34.739406 174.78372998 -35.953125 173.05078125 C-39.39463245 168.12433801 -42.81727896 163.18502191 -46.23730469 158.24365234 C-49.52033425 153.50759252 -52.82108356 148.78400322 -56.125 144.0625 C-56.70531982 143.23169922 -57.28563965 142.40089844 -57.88354492 141.54492188 C-58.42342041 140.77341797 -58.9632959 140.00191406 -59.51953125 139.20703125 C-59.9885083 138.53647705 -60.45748535 137.86592285 -60.94067383 137.17504883 C-61.92062076 135.79991418 -62.94110956 134.4533091 -63.98706055 133.12768555 C-65.3125 131.25 -65.3125 131.25 -65.3125 129.25 C-65.9725 129.25 -66.6325 129.25 -67.3125 129.25 C-67.745625 130.425625 -67.745625 130.425625 -68.1875 131.625 C-69.3125 134.25 -69.3125 134.25 -71.3125 136.25 C-71.61495743 138.26023925 -71.61495743 138.26023925 -71.56787109 140.58862305 C-71.57830948 141.93593758 -71.57830948 141.93593758 -71.58895874 143.31047058 C-71.58796173 144.28438248 -71.58696472 145.25829437 -71.5859375 146.26171875 C-71.6062367 148.3196668 -71.62708767 150.37760946 -71.6484375 152.43554688 C-71.67099258 155.68323288 -71.68748772 158.93070621 -71.69335938 162.1784668 C-71.70291129 165.31077692 -71.73673481 168.44212519 -71.7734375 171.57421875 C-71.76839203 172.53800949 -71.76334656 173.50180023 -71.75814819 174.49479675 C-71.84696028 180.61483982 -72.73824582 184.23906799 -76.3125 189.25 C-81.71245273 194.25483423 -86.16171748 194.60018872 -93.296875 194.53125 C-98.83964707 194.01430753 -101.89876145 191.77534949 -105.6875 187.6875 C-108.45031831 183.54327253 -108.44307655 180.28581945 -108.45967102 175.40655518 C-108.46334771 174.70655986 -108.4670244 174.00656454 -108.4708125 173.28535724 C-108.48184702 170.93404587 -108.48569278 168.5827787 -108.48950195 166.23144531 C-108.49576677 164.54779927 -108.50241359 162.86415461 -108.50941467 161.18051147 C-108.53045492 155.64639244 -108.54081687 150.11227314 -108.55078125 144.578125 C-108.55482879 142.67296077 -108.55894571 140.76779668 -108.56313133 138.86263275 C-108.58218275 129.91226253 -108.59641401 120.96190055 -108.6047433 112.01151395 C-108.61451663 101.68000476 -108.64083884 91.34870976 -108.68124419 81.01727605 C-108.71140368 73.03160776 -108.72621201 65.04600088 -108.72952431 57.06027675 C-108.73187496 52.2907923 -108.74083732 47.5215367 -108.76598549 42.75211334 C-108.78926835 38.26393795 -108.79349862 33.77614204 -108.78322411 29.28792191 C-108.78272869 27.64281324 -108.78905091 25.99768588 -108.80278015 24.35263443 C-108.82051077 22.10176328 -108.81338863 19.85225238 -108.80024719 17.60137939 C-108.80263555 16.34334126 -108.8050239 15.08530312 -108.80748463 13.78914261 C-108.04542388 8.34040438 -105.82502943 4.65185655 -101.75 0.875 C-96.41094265 -2.68437157 -90.5141024 -2.32838779 -84.3125 -1.75 C-79.41058903 -0.150795 -76.14758528 2.99737208 -73.3125 7.25 C-72.25401824 10.42544529 -72.15615886 12.76067486 -72.10717773 16.09838867 C-72.0772599 17.89991646 -72.0772599 17.89991646 -72.04673767 19.73783875 C-72.03002518 21.03478165 -72.01331268 22.33172455 -71.99609375 23.66796875 C-71.97551707 25.0089023 -71.95452041 26.34982946 -71.93312073 27.69075012 C-71.87797373 31.21701889 -71.82853206 34.74334548 -71.78027344 38.26971436 C-71.7300045 41.86931493 -71.67434661 45.46883173 -71.61914062 49.06835938 C-71.51164929 56.12883352 -71.41018435 63.18938282 -71.3125 70.25 C-70.859888 69.59875656 -70.407276 68.94751312 -69.94094849 68.27653503 C-67.8593688 65.281805 -65.77734351 62.28738502 -63.6953125 59.29296875 C-62.9835083 58.26876831 -62.2717041 57.24456787 -61.53833008 56.18933105 C-56.49924564 48.94293683 -51.42571096 41.72206432 -46.32421875 34.51953125 C-44.10463522 31.38062875 -41.90247072 28.23005411 -39.70703125 25.07421875 C-39.09037598 24.18887451 -38.4737207 23.30353027 -37.83837891 22.39135742 C-36.6550173 20.6911198 -35.47354884 18.98956217 -34.29443359 17.28637695 C-22.16175027 -0.13358324 -22.16175027 -0.13358324 -15.0625 -2.5 C-9.55741054 -3.00046268 -4.92511126 -2.60194557 0 0 Z M-13.6171875 12.32421875 C-16.47969977 15.43149656 -18.97352349 18.63853264 -21.4375 22.0625 C-21.91340576 22.71774658 -22.38931152 23.37299316 -22.87963867 24.0480957 C-27.14510545 29.95180494 -31.26848245 35.95005836 -35.375 41.96484375 C-40.34658585 49.2376507 -45.4284174 56.43416088 -50.48779297 63.64599609 C-52.95534789 67.16739572 -55.41558179 70.69388412 -57.87573242 74.22045898 C-59.63823456 76.74201742 -61.40832543 79.25809831 -63.1796875 81.7734375 C-65.07378352 84.46552491 -66.9380077 87.17127977 -68.7578125 89.9140625 C-69.43585938 90.91179687 -70.11390625 91.90953125 -70.8125 92.9375 C-71.3590625 93.76636719 -71.905625 94.59523438 -72.46875 95.44921875 C-74.9830979 97.90496956 -76.84751548 98.12690187 -80.3125 98.25 C-81.3025 97.59 -82.2925 96.93 -83.3125 96.25 C-83.61299776 93.67482575 -83.71888866 91.33652072 -83.69726562 88.75854492 C-83.70532478 87.59972557 -83.70532478 87.59972557 -83.71354675 86.41749573 C-83.72334357 84.73692009 -83.72626317 83.05629375 -83.72319031 81.37569237 C-83.7187239 78.71492152 -83.73267978 76.05481996 -83.75158691 73.39411926 C-83.78843812 67.74192394 -83.80208444 62.08979777 -83.8125 56.4375 C-83.82457399 49.8985334 -83.84613467 43.35989084 -83.89250183 36.82106972 C-83.90607676 34.2014 -83.90189946 31.58213925 -83.89709473 28.96244812 C-83.90643735 27.35150635 -83.91660667 25.7405691 -83.92773438 24.12963867 C-83.92158615 23.40269806 -83.91543793 22.67575745 -83.90910339 21.92678833 C-83.9620028 17.56003783 -84.53033463 14.67296479 -87.3125 11.25 C-90.3125 10.41666667 -90.3125 10.41666667 -93.3125 11.25 C-96.32435862 15.09508312 -96.68880032 18.08616713 -96.69345093 22.8918457 C-96.6981309 23.54595838 -96.70281087 24.20007105 -96.70763266 24.87400532 C-96.71956522 27.05813903 -96.71013279 29.24164327 -96.70068359 31.42578125 C-96.70475009 32.99474452 -96.71009241 34.56370493 -96.71661377 36.13265991 C-96.73028398 40.38883366 -96.72498997 44.64478911 -96.71547651 48.90096664 C-96.70787839 53.35626563 -96.71492595 57.81154598 -96.71963501 62.2668457 C-96.72509211 69.74856927 -96.71790213 77.23020398 -96.70361328 84.71191406 C-96.68728684 93.3603582 -96.69257538 102.00859016 -96.7090925 110.65702915 C-96.72270865 118.08391669 -96.7246264 125.51074038 -96.71677649 132.93763638 C-96.71210068 137.37273575 -96.71147258 141.80773541 -96.72138596 146.24282837 C-96.73005523 150.41255241 -96.72403452 154.58200302 -96.70670319 158.75169754 C-96.70273812 160.2815264 -96.70387275 161.81137829 -96.71049118 163.34119797 C-96.71869635 165.43049351 -96.70839879 167.51891439 -96.69345093 169.6081543 C-96.69231985 170.77694626 -96.69118877 171.94573822 -96.69002342 173.14994812 C-96.26837032 176.61237302 -95.45598871 178.51351954 -93.3125 181.25 C-90.3125 182.08333333 -90.3125 182.08333333 -87.3125 181.25 C-83.35463536 176.73959497 -84.04806123 171.96690849 -84.2578125 166.33203125 C-84.28430967 164.33402261 -84.30763926 162.33596994 -84.328125 160.33789062 C-84.37290286 157.21828542 -84.43589609 154.10425133 -84.55566406 150.98657227 C-85.07777957 136.30971731 -83.08482688 126.94055446 -73.60498047 115.44799805 C-71.56207972 113.27374221 -70.43826621 112.30171104 -67.64111328 111.15161133 C-64.88322317 111.26813782 -63.56901617 111.6522868 -61.3125 113.25 C-59.61181641 115.27099609 -59.61181641 115.27099609 -57.9140625 117.7734375 C-57.27710449 118.7018042 -56.64014648 119.6301709 -55.98388672 120.58666992 C-55.3085791 121.58931885 -54.63327148 122.59196777 -53.9375 123.625 C-52.49516047 125.73332527 -51.05244552 127.84139375 -49.609375 129.94921875 C-48.88685547 131.01060059 -48.16433594 132.07198242 -47.41992188 133.16552734 C-44.37944788 137.61563723 -41.28623915 142.02785793 -38.1875 146.4375 C-37.05183119 148.05711489 -35.91641489 149.67690688 -34.78125 151.296875 C-34.21792969 152.10060547 -33.65460938 152.90433594 -33.07421875 153.73242188 C-31.20216001 156.40768098 -29.33504693 159.08634359 -27.46875 161.765625 C-26.83598145 162.6728833 -26.20321289 163.5801416 -25.55126953 164.51489258 C-24.3425577 166.24816064 -23.13512216 167.98231971 -21.92919922 169.7175293 C-17.86952707 175.68062144 -17.86952707 175.68062144 -13.3125 181.25 C-10.2274255 181.8338196 -10.2274255 181.8338196 -7.3125 181.25 C-5.07416279 179.3983762 -5.07416279 179.3983762 -4.8671875 176.6015625 C-5.48574223 171.94612427 -7.64422992 169.30782718 -10.4375 165.625 C-11.54773352 164.10870115 -12.65707256 162.59174706 -13.765625 161.07421875 C-14.34892578 160.28450684 -14.93222656 159.49479492 -15.53320312 158.68115234 C-18.48553822 154.64721259 -21.33208774 150.54032099 -24.1875 146.4375 C-25.36809118 144.74841938 -26.54908417 143.05961954 -27.73046875 141.37109375 C-28.61484619 140.10628174 -28.61484619 140.10628174 -29.51708984 138.81591797 C-31.91597601 135.38753972 -34.31921059 131.96221932 -36.72241211 128.53686523 C-38.47199815 126.03996254 -40.21681027 123.53978027 -41.9609375 121.0390625 C-44.15508676 117.89458108 -46.36961484 114.7661852 -48.6015625 111.6484375 C-49.60951793 110.22405947 -50.61733784 108.79958552 -51.625 107.375 C-52.08737061 106.73916992 -52.54974121 106.10333984 -53.02612305 105.44824219 C-55.62220843 101.75077219 -57.25004037 98.81579924 -57.3125 94.25 C-56.30078125 91.85546875 -56.30078125 91.85546875 -54.625 89.4375 C-53.97273438 88.48101562 -53.32046875 87.52453125 -52.6484375 86.5390625 C-51.87092068 85.44190737 -51.09219868 84.34560566 -50.3125 83.25 C-49.42903818 81.98743327 -48.54626084 80.72438739 -47.6640625 79.4609375 C-45.65799502 76.59895247 -43.63946403 73.74621364 -41.61328125 70.8984375 C-38.19702668 66.09506313 -34.81468988 61.26839088 -31.4375 56.4375 C-30.85935547 55.6110498 -30.28121094 54.78459961 -29.68554688 53.93310547 C-27.89421438 51.37229176 -26.10330964 48.81117937 -24.3125 46.25 C-21.7920906 42.6455366 -19.27117728 39.04142632 -16.75 35.4375 C-16.17846191 34.61983154 -15.60692383 33.80216309 -15.01806641 32.9597168 C-14.47456543 32.18281494 -13.93106445 31.40591309 -13.37109375 30.60546875 C-12.85530762 29.86603027 -12.33952148 29.1265918 -11.80810547 28.36474609 C-10.83339759 26.98653525 -9.84343823 25.61894667 -8.83642578 24.26416016 C-5.69124413 20.13202468 -5.69124413 20.13202468 -4.3125 15.25 C-6.54180256 12.43731921 -6.54180256 12.43731921 -9.3125 10.25 C-11.5815086 10.02701176 -11.5815086 10.02701176 -13.6171875 12.32421875 Z " fill="#000000" transform="translate(238.3125,159.75)"/>
<path d="M0 0 C1.09899628 -0.01283524 2.19799255 -0.02567047 3.33029175 -0.03889465 C4.5208316 -0.04628159 5.71137146 -0.05366852 6.93798828 -0.0612793 C8.78313522 -0.07338692 8.78313522 -0.07338692 10.66555786 -0.08573914 C13.27653595 -0.0995859 15.88753218 -0.11030539 18.49853516 -0.11816406 C22.45780434 -0.13129457 26.41644653 -0.17915219 30.37548828 -0.22338867 C32.91714883 -0.23352436 35.45881646 -0.24203771 38.00048828 -0.2487793 C39.17078583 -0.26628738 40.34108337 -0.28379547 41.54684448 -0.30183411 C57.33151311 -0.26098635 70.89050787 5.47490253 82.38330078 16.23950195 C94.67165211 29.1848894 99.15814236 43.31218768 99.0534668 60.97729492 C98.71377625 73.74227978 94.84102918 86.46029956 85.91845703 96.01293945 C85.49435547 96.39708008 85.07025391 96.7812207 84.63330078 97.17700195 C86.15101466 100.41529245 88.01023409 103.27730264 90.00830078 106.23950195 C99.15225071 120.45072414 100.71273693 136.612698 97.98486328 153.0949707 C93.02454111 170.49849421 81.7993413 182.77511358 66.38330078 191.52075195 C57.33015153 195.83781636 48.2401038 196.63548597 38.33642578 196.6105957 C37.10341736 196.61583755 35.87040894 196.62107941 34.60003662 196.6264801 C32.01168568 196.6328654 29.42330559 196.63160899 26.83496094 196.62304688 C22.88049969 196.6144959 18.92746504 196.64341623 14.97314453 196.67504883 C12.44840538 196.67666009 9.92366368 196.67608475 7.39892578 196.6730957 C6.22275696 196.68432968 5.04658813 196.69556366 3.83477783 196.70713806 C-2.79475431 196.65086394 -7.00180244 196.18413323 -12.36669922 192.17700195 C-16.88169232 187.30556203 -17.4916821 183.857528 -17.51387024 177.33355713 C-17.51754693 176.63356181 -17.52122362 175.93356649 -17.52501172 175.21235919 C-17.53604624 172.86104782 -17.53989199 170.50978065 -17.54370117 168.15844727 C-17.54996599 166.47480122 -17.55661281 164.79115657 -17.56361389 163.10751343 C-17.58465414 157.5733944 -17.59501609 152.03927509 -17.60498047 146.50512695 C-17.60902801 144.59996272 -17.61314493 142.69479864 -17.61733055 140.7896347 C-17.63638196 131.83926448 -17.65061323 122.88890251 -17.65894252 113.9385159 C-17.66871585 103.60700671 -17.69503806 93.27571171 -17.73544341 82.944278 C-17.7656029 74.95860972 -17.78041123 66.97300284 -17.78372353 58.9872787 C-17.78607418 54.21779425 -17.79503654 49.44853865 -17.82018471 44.6791153 C-17.84346757 40.1909399 -17.84769784 35.703144 -17.83742332 31.21492386 C-17.83692791 29.56981519 -17.84325013 27.92468783 -17.85697937 26.27963638 C-17.87470999 24.02876524 -17.86758785 21.77925434 -17.85444641 19.52838135 C-17.85683476 18.27034321 -17.85922312 17.01230507 -17.86168385 15.71614456 C-17.0996231 10.26740633 -14.87922865 6.5788585 -10.80419922 2.80200195 C-7.12467648 0.34898679 -4.32030029 0.04399377 0 0 Z M-4.36669922 15.17700195 C-5.48350389 18.52741595 -5.49816707 21.04673488 -5.50714111 24.57833862 C-5.51011224 25.23074245 -5.51308336 25.88314627 -5.51614451 26.55531991 C-5.52482898 28.74547035 -5.52633954 30.93556612 -5.52783203 33.12573242 C-5.53246034 34.69439816 -5.53748502 36.26306277 -5.5428772 37.83172607 C-5.55600096 42.09621052 -5.56244598 46.36067923 -5.56688786 50.62518072 C-5.5698183 53.28881003 -5.57392303 55.95243503 -5.57839203 58.61606216 C-5.59206619 66.94813291 -5.60173354 75.28019381 -5.60559392 83.612275 C-5.61007621 93.23402301 -5.62763236 102.85562907 -5.65659451 112.4773339 C-5.67819958 119.91265813 -5.68829755 127.34794237 -5.68963504 134.78329766 C-5.69068381 139.22515386 -5.69660696 143.66687661 -5.71445465 148.1086998 C-5.73091531 152.28657518 -5.73310067 156.46421651 -5.72431564 160.64211273 C-5.72354422 162.175176 -5.72790187 163.70825174 -5.7377739 165.24128342 C-5.75046568 167.3350344 -5.74463258 169.42795287 -5.73419189 171.521698 C-5.73565845 172.6930876 -5.73712502 173.8644772 -5.73863602 175.07136345 C-5.32285222 178.5431204 -4.50066607 180.4250852 -2.36669922 183.17700195 C1.50582898 184.46784468 5.18275517 184.33948399 9.21923828 184.3449707 C10.49838608 184.3499633 10.49838608 184.3499633 11.80337524 184.35505676 C13.61402854 184.3601231 15.42469119 184.36246518 17.23535156 184.36230469 C19.96321812 184.36446623 22.69066339 184.38255489 25.41845703 184.40161133 C42.66046036 184.46063562 59.88511879 183.55200728 73.11767578 170.9543457 C83.30894195 159.00324748 86.92654098 146.66025412 85.86083984 131.24780273 C84.68065016 120.50706353 78.30635695 111.42377723 70.63330078 104.17700195 C68.22497984 100.56452055 67.90969224 99.43825227 68.63330078 95.17700195 C70.18033714 93.0637592 71.90095843 91.21233379 73.69189453 89.30200195 C83.30799064 78.7765366 86.56401258 67.48232732 86.01220703 53.4855957 C85.62248827 47.86460502 84.24669668 43.17114724 81.63330078 38.17700195 C80.90433594 36.77708008 80.90433594 36.77708008 80.16064453 35.34887695 C74.04142345 24.75958656 65.1171538 18.1566743 53.63330078 14.17700195 C43.50500591 11.77948288 33.18084225 11.83587489 22.83740234 11.86132812 C20.11012223 11.86452916 17.38388825 11.84079873 14.65673828 11.81567383 C12.9093438 11.8134041 11.16194644 11.81269582 9.41455078 11.8137207 C8.60618774 11.80451096 7.79782471 11.79530121 6.96496582 11.78581238 C2.39845962 11.82331283 -0.69972231 12.14534391 -4.36669922 15.17700195 Z " fill="#000000" transform="translate(283.36669921875,157.822998046875)"/>
<path d="M0 0 C0.86129517 -0.0066568 1.72259033 -0.0133136 2.60998535 -0.02017212 C4.43918725 -0.03031416 6.26842626 -0.03498866 8.09765625 -0.03466797 C10.86783099 -0.03900239 13.63636154 -0.07519528 16.40625 -0.11328125 C33.63550839 -0.22321498 33.63550839 -0.22321498 41.40625 4.3359375 C42.07237305 4.71419678 42.73849609 5.09245605 43.42480469 5.48217773 C48.57092163 8.576959 51.51559417 13.18531438 54.40625 18.3359375 C54.74914062 18.92890625 55.09203125 19.521875 55.4453125 20.1328125 C58.91293093 27.45694115 58.54532128 37.61430332 56.6796875 45.34765625 C55.75061871 47.81384293 54.70000631 50.04207352 53.40625 52.3359375 C52.8803125 53.30080078 52.8803125 53.30080078 52.34375 54.28515625 C47.70903163 61.70392419 39.65243437 66.00123672 31.40625 68.3359375 C28.24380648 68.7257138 25.12860973 68.73465244 21.9453125 68.69921875 C21.07353363 68.69971725 20.20175476 68.70021576 19.30355835 68.70072937 C17.47660012 68.69840416 15.64963775 68.68876832 13.82275391 68.67211914 C11.01826692 68.64832736 8.21471988 68.65159436 5.41015625 68.65820312 C3.63020264 68.65263208 1.85025303 68.64552583 0.0703125 68.63671875 C-1.18898575 68.63808586 -1.18898575 68.63808586 -2.47372437 68.63948059 C-8.36265032 68.56703718 -8.36265032 68.56703718 -10.59375 66.3359375 C-10.84771729 63.67919922 -10.84771729 63.67919922 -10.85253906 60.265625 C-10.85884338 58.99090332 -10.86514771 57.71618164 -10.87164307 56.40283203 C-10.86806339 55.00553246 -10.86396146 53.60823413 -10.859375 52.2109375 C-10.86072171 50.78369073 -10.86266229 49.35644441 -10.86517334 47.92919922 C-10.86812434 44.93647905 -10.86382782 41.94387819 -10.85449219 38.95117188 C-10.84309755 35.11077377 -10.84965717 31.27065518 -10.86163712 27.43026733 C-10.86885643 24.4826445 -10.86656748 21.53508819 -10.86138153 18.58746338 C-10.86004523 17.17124397 -10.86169209 15.75501856 -10.86634064 14.33880615 C-10.87140675 12.36128857 -10.86231908 10.38374988 -10.85253906 8.40625 C-10.85094788 7.27977051 -10.84935669 6.15329102 -10.84771729 4.99267578 C-10.25154549 -1.24384568 -4.95064457 0.01322326 0 0 Z M1.40625 12.3359375 C1.40625 26.8559375 1.40625 41.3759375 1.40625 56.3359375 C21.34989939 57.61600841 21.34989939 57.61600841 38.67578125 50.0859375 C43.30305437 45.40643782 44.64342559 40.85726822 44.90625 34.3359375 C44.64342559 27.81460678 43.30305437 23.26543718 38.67578125 18.5859375 C28.06549025 9.77579568 14.63430853 12.3359375 1.40625 12.3359375 Z " fill="#000000" transform="translate(300.59375,261.6640625)"/>
<path d="M0 0 C0.86129517 -0.0066568 1.72259033 -0.0133136 2.60998535 -0.02017212 C4.43918725 -0.03031416 6.26842626 -0.03498866 8.09765625 -0.03466797 C10.86783099 -0.03900239 13.63636154 -0.07519528 16.40625 -0.11328125 C33.63550839 -0.22321498 33.63550839 -0.22321498 41.40625 4.3359375 C42.07237305 4.71419678 42.73849609 5.09245605 43.42480469 5.48217773 C48.57092163 8.576959 51.51559417 13.18531438 54.40625 18.3359375 C54.74914062 18.92890625 55.09203125 19.521875 55.4453125 20.1328125 C58.91293093 27.45694115 58.54532128 37.61430332 56.6796875 45.34765625 C55.75061871 47.81384293 54.70000631 50.04207352 53.40625 52.3359375 C52.8803125 53.30080078 52.8803125 53.30080078 52.34375 54.28515625 C47.70903163 61.70392419 39.65243437 66.00123672 31.40625 68.3359375 C28.24380648 68.7257138 25.12860973 68.73465244 21.9453125 68.69921875 C21.07353363 68.69971725 20.20175476 68.70021576 19.30355835 68.70072937 C17.47660012 68.69840416 15.64963775 68.68876832 13.82275391 68.67211914 C11.01826692 68.64832736 8.21471988 68.65159436 5.41015625 68.65820312 C3.63020264 68.65263208 1.85025303 68.64552583 0.0703125 68.63671875 C-1.18898575 68.63808586 -1.18898575 68.63808586 -2.47372437 68.63948059 C-8.36265032 68.56703718 -8.36265032 68.56703718 -10.59375 66.3359375 C-10.84771729 63.67919922 -10.84771729 63.67919922 -10.85253906 60.265625 C-10.85884338 58.99090332 -10.86514771 57.71618164 -10.87164307 56.40283203 C-10.86806339 55.00553246 -10.86396146 53.60823413 -10.859375 52.2109375 C-10.86072171 50.78369073 -10.86266229 49.35644441 -10.86517334 47.92919922 C-10.86812434 44.93647905 -10.86382782 41.94387819 -10.85449219 38.95117188 C-10.84309755 35.11077377 -10.84965717 31.27065518 -10.86163712 27.43026733 C-10.86885643 24.4826445 -10.86656748 21.53508819 -10.86138153 18.58746338 C-10.86004523 17.17124397 -10.86169209 15.75501856 -10.86634064 14.33880615 C-10.87140675 12.36128857 -10.86231908 10.38374988 -10.85253906 8.40625 C-10.85094788 7.27977051 -10.84935669 6.15329102 -10.84771729 4.99267578 C-10.25154549 -1.24384568 -4.95064457 0.01322326 0 0 Z M1.40625 12.3359375 C1.40625 26.8559375 1.40625 41.3759375 1.40625 56.3359375 C21.34989939 57.61600841 21.34989939 57.61600841 38.67578125 50.0859375 C43.30305437 45.40643782 44.64342559 40.85726822 44.90625 34.3359375 C44.64342559 27.81460678 43.30305437 23.26543718 38.67578125 18.5859375 C28.06549025 9.77579568 14.63430853 12.3359375 1.40625 12.3359375 Z " fill="#000000" transform="translate(300.59375,181.6640625)"/>
</svg>
