<?xml version="1.0" encoding="UTF-8"?>
<svg version="1.1" xmlns="http://www.w3.org/2000/svg" width="512" height="512">
<path d="M0 0 C1.87147522 1.32780457 1.87147522 1.32780457 3.78540039 3.08276367 C4.83281906 4.03885025 4.83281906 4.03885025 5.90139771 5.01425171 C9.08272101 8.02449683 12.21675167 11.07370912 15.30859375 14.17578125 C16.28687889 15.1526313 16.28687889 15.1526313 17.28492737 16.1492157 C18.64650136 17.51011535 20.00683824 18.8722538 21.3659668 20.2355957 C23.45312274 22.32816325 25.54563632 24.41526824 27.63867188 26.50195312 C28.96646705 27.83040819 30.29395247 29.15917293 31.62109375 30.48828125 C32.24704941 31.11221268 32.87300507 31.7361441 33.51792908 32.37898254 C38.788564 37.67852498 38.788564 37.67852498 39.5 42.125 C38.25235021 51.79428588 25.9682119 60.1731571 19.21166992 66.91772461 C17.92305183 68.2076997 16.63464613 69.497887 15.34643555 70.78826904 C11.86775063 74.27149005 8.38593773 77.75156816 4.90339446 81.23093104 C1.25532812 84.87645724 -2.39028833 88.52443207 -6.03630066 92.17201233 C-12.15155416 98.28908131 -18.26890498 104.4040469 -24.38745117 110.51782227 C-31.46663211 117.59154717 -38.54218371 124.66888704 -45.61588937 131.74808687 C-51.69315412 137.82988306 -57.77235716 143.90973662 -63.85319823 149.98795706 C-67.48378007 153.61697818 -71.11367871 157.24667573 -74.74183083 160.87812614 C-78.1467182 164.28589316 -81.55402524 167.69122186 -84.96324921 171.09465027 C-86.21624561 172.3463202 -87.46838401 173.59884968 -88.71961784 174.85228157 C-90.42189427 176.55727354 -92.1271932 178.25918244 -93.83332825 179.96031189 C-94.33244195 180.46165632 -94.83155566 180.96300074 -95.34579402 181.47953743 C-98.65421296 184.76903595 -100.37174944 186.11429951 -105.01904297 186.17700195 C-105.84685272 186.18983719 -106.67466248 186.20267242 -107.52755737 186.21589661 C-108.42338531 186.22328354 -109.31921326 186.23067047 -110.2421875 186.23828125 C-111.1621048 186.246353 -112.08202209 186.25442474 -113.02981567 186.26274109 C-114.97835402 186.27658357 -116.92691663 186.28730499 -118.87548828 186.29516602 C-121.85626062 186.31239171 -124.83592756 186.35627737 -127.81640625 186.40039062 C-129.70832517 186.41051635 -131.60025352 186.41903283 -133.4921875 186.42578125 C-134.82985672 186.45204338 -134.82985672 186.45204338 -136.19454956 186.47883606 C-139.88323562 186.46589838 -142.30917146 186.3909391 -145.55444336 184.55444336 C-147.74808974 180.67805051 -147.63011169 177.09172986 -147.63671875 172.703125 C-147.64766068 171.79552429 -147.6586026 170.88792358 -147.6698761 169.95281982 C-147.68573092 168.03305736 -147.69094062 166.11318165 -147.6862793 164.19335938 C-147.68749055 161.27279635 -147.74716965 158.35729109 -147.81054688 155.4375 C-147.81869282 153.56772052 -147.82336135 151.69792202 -147.82421875 149.828125 C-147.84779953 148.96326477 -147.87138031 148.09840454 -147.89567566 147.20733643 C-147.71733386 135.29070981 -135.13746916 126.99402791 -127.21166992 119.08227539 C-125.92305183 117.7923003 -124.63464613 116.502113 -123.34643555 115.21173096 C-119.86775063 111.72850995 -116.38593773 108.24843184 -112.90339446 104.76906896 C-109.25532812 101.12354276 -105.60971167 97.47556793 -101.96369934 93.82798767 C-95.84844584 87.71091869 -89.73109502 81.5959531 -83.61254883 75.48217773 C-76.53336789 68.40845283 -69.45781629 61.33111296 -62.38411063 54.25191313 C-56.30684588 48.17011694 -50.22764284 42.09026338 -44.14680177 36.01204294 C-40.51621993 32.38302182 -36.88632129 28.75332427 -33.25816917 25.12187386 C-29.8532818 21.71410684 -26.44597476 18.30877814 -23.03675079 14.90534973 C-21.78375439 13.6536798 -20.53161599 12.40115032 -19.28038216 11.14771843 C-17.57810573 9.44272646 -15.8728068 7.74081756 -14.16667175 6.03968811 C-13.66755805 5.53834368 -13.16844434 5.03699926 -12.65420598 4.52046257 C-8.41556346 0.3060603 -6.10764365 -0.78808305 0 0 Z M-122.22900391 137.51416016 C-127.99990046 143.35954494 -131.3042443 148.26503771 -131.54248047 156.77319336 C-131.30115828 161.24257881 -130.87020553 165.60759195 -130 170 C-122.86689547 171.52379013 -116.01993047 172.42738141 -109 170 C-100.0941844 163.81808025 -92.94479581 155.24640864 -86 147 C-87.48229451 143.56394819 -89.4295174 141.31298409 -92.0625 138.671875 C-92.85914063 137.87265625 -93.65578125 137.0734375 -94.4765625 136.25 C-95.30929687 135.425 -96.14203125 134.6 -97 133.75 C-97.83273437 132.90953125 -98.66546875 132.0690625 -99.5234375 131.203125 C-100.32007813 130.4090625 -101.11671875 129.615 -101.9375 128.796875 C-102.66839844 128.06823242 -103.39929688 127.33958984 -104.15234375 126.58886719 C-109.38198485 122.09170753 -118.21863225 133.64740756 -122.22900391 137.51416016 Z " fill="#000000" transform="translate(363,110)"/>
<path d="M0 0 C1.10794922 -0.01260864 2.21589844 -0.02521729 3.35742188 -0.03820801 C4.54916016 -0.03011108 5.74089844 -0.02201416 6.96875 -0.01367188 C8.19658203 -0.01749878 9.42441406 -0.02132568 10.68945312 -0.02526855 C13.28516459 -0.02799029 15.88090336 -0.02061099 18.4765625 -0.00390625 C22.45374599 0.01749738 26.42912282 -0.0037015 30.40625 -0.02929688 C32.92708733 -0.02665365 35.44792353 -0.02152878 37.96875 -0.01367188 C39.16048828 -0.0217688 40.35222656 -0.02986572 41.58007812 -0.03820801 C43.24200195 -0.01929504 43.24200195 -0.01929504 44.9375 0 C45.91138672 0.00318237 46.88527344 0.00636475 47.88867188 0.00964355 C51.23630288 0.66868465 52.40033562 1.84572915 54.46875 4.51757812 C55.56626208 7.4146506 55.6043192 10.18663738 55.62988281 13.2668457 C55.63949036 14.20494583 55.6490979 15.14304596 55.65899658 16.10957336 C55.6653714 17.62057869 55.6653714 17.62057869 55.671875 19.16210938 C55.67757507 20.20525803 55.68327515 21.24840668 55.68914795 22.32316589 C55.69858874 24.52964262 55.70512827 26.7361334 55.70898438 28.94262695 C55.71868363 32.30705542 55.74971368 35.67087125 55.78125 39.03515625 C55.78778111 41.18163701 55.79303116 43.32812212 55.796875 45.47460938 C55.8092218 46.47587357 55.8215686 47.47713776 55.83428955 48.50874329 C55.81601805 54.2777238 55.3028017 58.4441426 52.46875 63.51757812 C50.12022472 64.69184077 48.73100935 64.63265985 46.1171875 64.61523438 C45.26640625 64.61201172 44.415625 64.60878906 43.5390625 64.60546875 C42.64960938 64.59708984 41.76015625 64.58871094 40.84375 64.58007812 C39.9465625 64.57556641 39.049375 64.57105469 38.125 64.56640625 C35.90618352 64.55460403 33.68749982 64.53813968 31.46875 64.51757812 C31.47151538 65.12957345 31.47428076 65.74156878 31.47712994 66.37210941 C31.5434491 81.27906208 31.59305942 96.18600047 31.62418652 111.09306431 C31.63964035 118.30208708 31.66070134 125.51101124 31.69506836 132.7199707 C31.72501633 139.0049825 31.74433579 145.28992287 31.75101548 151.57500404 C31.75491866 154.90142342 31.7656455 158.2275914 31.78594017 161.55395699 C31.80772121 165.27185298 31.81071655 168.98932585 31.80932617 172.70727539 C31.820112 173.80419708 31.83089783 174.90111877 31.8420105 176.03128052 C31.81804307 181.95527292 31.41925805 186.32133652 28.46875 191.51757812 C25.33932535 193.08229045 21.85792777 193.2145977 18.46875 192.51757812 C15.96973891 190.49115348 14.62465432 189.28689661 13.97655869 186.08883286 C13.98208944 184.72273565 13.98208944 184.72273565 13.98773193 183.32904053 C13.98223328 182.28018677 13.97673462 181.23133301 13.97106934 180.1506958 C13.99264099 178.43303009 13.99264099 178.43303009 14.01464844 176.68066406 C14.01406433 175.47063721 14.01348022 174.26061035 14.01287842 173.01391602 C14.01518698 169.69981746 14.03523922 166.38671683 14.06317425 163.07279491 C14.08818777 159.60815054 14.09052984 156.14349271 14.09527588 152.67877197 C14.10770588 146.11973994 14.14052755 139.56097474 14.18067384 133.00206017 C14.22539101 125.53419077 14.24737841 118.06630858 14.26745558 110.5983386 C14.30926037 95.2379306 14.37961259 79.87778878 14.46875 64.51757812 C13.59138184 64.54899902 13.59138184 64.54899902 12.69628906 64.58105469 C10.03728535 64.66437928 7.37855645 64.71628709 4.71875 64.76757812 C3.79835938 64.80109375 2.87796875 64.83460937 1.9296875 64.86914062 C-1.92746728 64.92504142 -4.7041802 64.95080516 -8.15625 63.14257812 C-10.34527553 58.96352939 -9.94999663 54.90162028 -9.78125 50.26757812 C-9.76320313 49.33171875 -9.74515625 48.39585938 -9.7265625 47.43164062 C-9.67950673 45.12590797 -9.61378713 42.82226868 -9.53125 40.51757812 C-10.48431345 40.52310888 -10.48431345 40.52310888 -11.45663071 40.52875137 C-26.91331261 40.61707038 -42.36990681 40.68327198 -57.82677841 40.72482681 C-65.30160328 40.74545633 -72.77625977 40.77358414 -80.25097656 40.81933594 C-86.7655887 40.85919207 -93.28007891 40.88500811 -99.79480958 40.8939321 C-103.24470504 40.89914903 -106.69425164 40.91141806 -110.14403534 40.94049835 C-113.99420229 40.97269076 -117.84402726 40.97353832 -121.69433594 40.97167969 C-122.83944641 40.98606079 -123.98455688 41.00044189 -125.16436768 41.01525879 C-126.21322144 41.00976013 -127.2620752 41.00426147 -128.3427124 40.99859619 C-129.25344387 41.00228336 -130.16417534 41.00597054 -131.10250473 41.00976944 C-134.29883724 40.36202465 -135.49908113 39.00878056 -137.53125 36.51757812 C-138.0625 34.51757812 -138.0625 34.51757812 -138.03125 32.51757812 C-138.04671875 31.52757812 -138.04671875 31.52757812 -138.0625 30.51757812 C-137.28996256 27.60920187 -135.82451486 26.4244581 -133.53125 24.51757812 C-131.10250473 24.02538681 -131.10250473 24.02538681 -128.3427124 24.03656006 C-126.76943176 24.02831207 -126.76943176 24.02831207 -125.16436768 24.01989746 C-124.0192572 24.03427856 -122.87414673 24.04865967 -121.69433594 24.06347656 C-120.48430908 24.06289246 -119.27428223 24.06230835 -118.02758789 24.06170654 C-114.71348933 24.06401511 -111.40038871 24.08406734 -108.08646679 24.11200237 C-104.62182241 24.13701589 -101.15716459 24.13935797 -97.69244385 24.144104 C-91.13341181 24.156534 -84.57464661 24.18935567 -78.01573205 24.22950196 C-70.54786264 24.27421913 -63.07998045 24.29620653 -55.61201048 24.3162837 C-40.25160247 24.3580885 -24.89146065 24.42844072 -9.53125 24.51757812 C-9.5626709 23.64020996 -9.5626709 23.64020996 -9.59472656 22.74511719 C-9.67805115 20.08611347 -9.72995897 17.42738457 -9.78125 14.76757812 C-9.81476563 13.8471875 -9.84828125 12.92679688 -9.8828125 11.97851562 C-9.98076657 5.21968489 -9.98076657 5.21968489 -7.86132812 1.90930176 C-5.02496075 0.21517852 -3.29749103 0.01077522 0 0 Z M7.46875 16.51757812 C7.46875 27.07757813 7.46875 37.63757813 7.46875 48.51757812 C17.69875 48.51757812 27.92875 48.51757812 38.46875 48.51757812 C38.46875 37.95757812 38.46875 27.39757812 38.46875 16.51757812 C28.23875 16.51757812 18.00875 16.51757812 7.46875 16.51757812 Z " fill="#000000" transform="translate(417.53125,39.482421875)"/>
<path d="M0 0 C2.96991701 0.60983922 4.20486489 1.94625545 5.90234375 4.390625 C6.89403659 7.45483148 7.02592676 10.25660294 7.02259827 13.465271 C7.02397293 14.48888229 7.0253476 15.51249359 7.02676392 16.56712341 C7.021371 18.2427108 7.021371 18.2427108 7.01586914 19.95214844 C7.01601517 21.13291458 7.01616119 22.31368073 7.01631165 23.53022766 C7.01573463 26.76337608 7.01072159 29.99648115 7.00373769 33.22962093 C6.99748362 36.61021168 6.99689872 39.99080329 6.99571228 43.37139893 C6.99260503 49.77093921 6.98439979 56.1704624 6.97436279 62.56999516 C6.96318286 69.85652491 6.95768646 77.14305547 6.95266736 84.42959166 C6.94221668 99.41661229 6.92462895 114.40361694 6.90234375 129.390625 C7.50852539 129.5760083 8.11470703 129.7613916 8.73925781 129.95239258 C9.94146973 130.3336731 9.94146973 130.3336731 11.16796875 130.72265625 C11.95977539 130.96991455 12.75158203 131.21717285 13.56738281 131.47192383 C20.3632031 134.14577073 24.7635002 139.99537821 27.90234375 146.390625 C31.24970429 154.70617329 31.39754382 165.48958232 28.27734375 173.953125 C24.16606784 182.52067899 17.9089168 187.97272483 9.13671875 191.50390625 C0.50102152 193.87142228 -9.87432474 193.5420475 -17.98828125 189.6484375 C-26.33296132 184.67253568 -31.52215133 177.78497773 -34.09765625 168.390625 C-35.09617137 157.29085228 -34.44712827 147.6561384 -27.34765625 138.578125 C-22.30995035 133.19693916 -17.34181089 130.50463584 -10.09765625 129.390625 C-10.10134342 128.75009563 -10.10503059 128.10956627 -10.1088295 127.44962692 C-10.19714746 111.86776673 -10.2633496 96.28599353 -10.30490494 80.70394516 C-10.3255347 73.16858688 -10.35366296 65.63339561 -10.39941406 58.09814453 C-10.43926946 51.53079469 -10.46508606 44.96356579 -10.47401023 38.39609838 C-10.47922727 34.91825848 -10.49149711 31.44076462 -10.52057648 27.96303558 C-10.55276742 24.08173614 -10.55361649 20.20077596 -10.55175781 16.31933594 C-10.57332947 14.58764412 -10.57332947 14.58764412 -10.59533691 12.82096863 C-10.58983826 11.76370071 -10.5843396 10.7064328 -10.57867432 9.61712646 C-10.58236149 8.69902065 -10.58604866 7.78091484 -10.58984756 6.83498764 C-9.40628657 0.95708573 -5.31415685 -0.27708825 0 0 Z M-7.47265625 155.015625 C-9.58472131 158.10248932 -9.7096077 159.7189163 -9.09765625 163.390625 C-7.59765625 165.890625 -7.59765625 165.890625 -5.09765625 167.390625 C-1.42594755 168.00257645 0.19047943 167.87769006 3.27734375 165.765625 C5.38940881 162.67876068 5.5142952 161.0623337 4.90234375 157.390625 C3.40234375 154.890625 3.40234375 154.890625 0.90234375 153.390625 C-2.76936495 152.77867355 -4.38579193 152.90355994 -7.47265625 155.015625 Z " fill="#000000" transform="translate(442.09765625,279.609375)"/>
<path d="M0 0 C6.27116053 3.7394698 11.10729102 8.50932619 14.109375 15.2578125 C14.46559055 17.253864 14.80119398 19.25378267 15.109375 21.2578125 C15.74990437 21.25412533 16.39043373 21.25043816 17.05037308 21.24663925 C32.63223327 21.15832129 48.21400647 21.09211915 63.79605484 21.05056381 C71.33141312 21.02993405 78.86660439 21.00180579 86.40185547 20.95605469 C92.96920531 20.91619929 99.53643421 20.89038269 106.10390162 20.88145852 C109.58174152 20.87624148 113.05923538 20.86397164 116.53696442 20.83489227 C120.41826386 20.80270133 124.29922404 20.80185226 128.18066406 20.80371094 C129.33512527 20.78932983 130.48958649 20.77494873 131.67903137 20.76013184 C132.73629929 20.76563049 133.7935672 20.77112915 134.88287354 20.77679443 C136.26003225 20.77126368 136.26003225 20.77126368 137.66501236 20.76562119 C140.8731582 21.41160615 142.07174742 22.75644531 144.109375 25.2578125 C144.640625 27.2578125 144.640625 27.2578125 144.609375 29.2578125 C144.62484375 30.2478125 144.62484375 30.2478125 144.640625 31.2578125 C143.86775577 34.16743784 142.40479108 35.35111841 140.109375 37.2578125 C137.66501236 37.75000381 137.66501236 37.75000381 134.88287354 37.73883057 C133.82560562 37.74432922 132.76833771 37.74982788 131.67903137 37.75549316 C130.52457016 37.74111206 129.37010895 37.72673096 128.18066406 37.71191406 C126.35099342 37.71279022 126.35099342 37.71279022 124.48435974 37.71368408 C121.14340573 37.71137544 117.80344151 37.6913225 114.4626627 37.66338825 C110.96999086 37.63837556 107.47730569 37.63603272 103.98455811 37.63128662 C97.37240315 37.61885638 90.76051288 37.58603438 84.14847445 37.54588866 C76.6201464 37.50117224 69.09180567 37.47918428 61.56337786 37.45910692 C46.07855697 37.41730158 30.59400012 37.34694889 15.109375 37.2578125 C14.96765869 38.19947266 14.82594238 39.14113281 14.67993164 40.11132812 C13.51104187 46.55747764 9.29080486 51.62357226 4.234375 55.6328125 C-4.75787278 61.69500201 -13.3463147 62.21054714 -23.890625 61.2578125 C-27.28969408 60.4044292 -29.95356894 59.1492766 -32.890625 57.2578125 C-33.59703125 56.82210937 -34.3034375 56.38640625 -35.03125 55.9375 C-41.93709584 51.25687115 -45.68778524 45.25759899 -47.890625 37.2578125 C-48.88914012 26.15803978 -48.24009702 16.5233259 -41.140625 7.4453125 C-30.84272373 -3.5807232 -13.59449082 -6.52353083 0 0 Z M-21.265625 23.8828125 C-23.37769006 26.96967682 -23.50257645 28.5861038 -22.890625 32.2578125 C-21.390625 34.7578125 -21.390625 34.7578125 -18.890625 36.2578125 C-15.2189163 36.86976395 -13.60248932 36.74487756 -10.515625 34.6328125 C-8.40355994 31.54594818 -8.27867355 29.9295212 -8.890625 26.2578125 C-10.390625 23.7578125 -10.390625 23.7578125 -12.890625 22.2578125 C-16.5623337 21.64586105 -18.17876068 21.77074744 -21.265625 23.8828125 Z " fill="#000000" transform="translate(87.890625,42.7421875)"/>
<path d="M0 0 C21.45 0 42.9 0 65 0 C65 21.12 65 42.24 65 64 C50.02625 64.12375 50.02625 64.12375 34.75 64.25 C31.60178711 64.28641602 28.45357422 64.32283203 25.20996094 64.36035156 C22.7181059 64.37203263 20.22624326 64.38222582 17.734375 64.390625 C16.43773926 64.41108887 15.14110352 64.43155273 13.80517578 64.45263672 C11.94820068 64.45336182 11.94820068 64.45336182 10.05371094 64.45410156 C8.44154694 64.46742523 8.44154694 64.46742523 6.79681396 64.48101807 C4 64 4 64 1.65002441 62.34423828 C-0.44630024 59.3659281 -0.48456059 57.66271002 -0.45410156 54.03808594 C-0.45361816 52.82040527 -0.45313477 51.60272461 -0.45263672 50.34814453 C-0.43217285 49.07310059 -0.41170898 47.79805664 -0.390625 46.484375 C-0.38659668 45.30891113 -0.38256836 44.13344727 -0.37841797 42.92236328 C-0.35748985 38.53141674 -0.30164445 34.1406927 -0.25 29.75 C-0.1675 19.9325 -0.085 10.115 0 0 Z " fill="#000000" transform="translate(40,408)"/>
<path d="M0 0 C14.72625 -0.12375 14.72625 -0.12375 29.75 -0.25 C32.84600586 -0.28641602 35.94201172 -0.32283203 39.13183594 -0.36035156 C41.58267523 -0.37203275 44.03352226 -0.38222592 46.484375 -0.390625 C47.75941895 -0.41108887 49.03446289 -0.43155273 50.34814453 -0.45263672 C51.5658252 -0.45312012 52.78350586 -0.45360352 54.03808594 -0.45410156 C55.09509705 -0.46298401 56.15210815 -0.47186646 57.2411499 -0.48101807 C60.73432062 0.12803214 61.87422737 1.20533109 64 4 C65.22883034 7.14331404 65.12106942 10.24517847 65.11352539 13.59472656 C65.11340454 14.73119629 65.11328369 15.86766602 65.11315918 17.03857422 C65.10804321 18.22725098 65.10292725 19.41592773 65.09765625 20.640625 C65.09664917 21.73745605 65.09564209 22.83428711 65.09460449 23.96435547 C65.0893745 28.05958096 65.07541323 32.15479153 65.0625 36.25 C65.041875 45.4075 65.02125 54.565 65 64 C43.55 64 22.1 64 0 64 C0 42.88 0 21.76 0 0 Z " fill="#000000" transform="translate(200,328)"/>
<path d="M0 0 C14.72625 -0.12375 14.72625 -0.12375 29.75 -0.25 C32.84600586 -0.28641602 35.94201172 -0.32283203 39.13183594 -0.36035156 C41.58267523 -0.37203275 44.03352226 -0.38222592 46.484375 -0.390625 C47.75941895 -0.41108887 49.03446289 -0.43155273 50.34814453 -0.45263672 C51.5658252 -0.45312012 52.78350586 -0.45360352 54.03808594 -0.45410156 C55.09509705 -0.46298401 56.15210815 -0.47186646 57.2411499 -0.48101807 C60.73432062 0.12803214 61.87422737 1.20533109 64 4 C65.22883034 7.14331404 65.12106942 10.24517847 65.11352539 13.59472656 C65.11340454 14.73119629 65.11328369 15.86766602 65.11315918 17.03857422 C65.10804321 18.22725098 65.10292725 19.41592773 65.09765625 20.640625 C65.09664917 21.73745605 65.09564209 22.83428711 65.09460449 23.96435547 C65.0893745 28.05958096 65.07541323 32.15479153 65.0625 36.25 C65.041875 45.4075 65.02125 54.565 65 64 C43.55 64 22.1 64 0 64 C0 42.88 0 21.76 0 0 Z " fill="#000000" transform="translate(120,248)"/>
<path d="M0 0 C1.10794922 -0.01260864 2.21589844 -0.02521729 3.35742188 -0.03820801 C4.54916016 -0.03011108 5.74089844 -0.02201416 6.96875 -0.01367188 C8.19658203 -0.01749878 9.42441406 -0.02132568 10.68945312 -0.02526855 C13.28516459 -0.02799029 15.88090336 -0.02061099 18.4765625 -0.00390625 C22.45374599 0.01749738 26.42912282 -0.0037015 30.40625 -0.02929688 C32.92708733 -0.02665365 35.44792353 -0.02152878 37.96875 -0.01367188 C39.16048828 -0.0217688 40.35222656 -0.02986572 41.58007812 -0.03820801 C43.24200195 -0.01929504 43.24200195 -0.01929504 44.9375 0 C45.91138672 0.00318237 46.88527344 0.00636475 47.88867188 0.00964355 C51.23630288 0.66868465 52.40033562 1.84572915 54.46875 4.51757812 C55.69758034 7.66089216 55.58981942 10.76275659 55.58227539 14.11230469 C55.58215454 15.24877441 55.58203369 16.38524414 55.58190918 17.55615234 C55.57679321 18.7448291 55.57167725 19.93350586 55.56640625 21.15820312 C55.56539917 22.25503418 55.56439209 23.35186523 55.56335449 24.48193359 C55.5581245 28.57715908 55.54416323 32.67236966 55.53125 36.76757812 C55.510625 45.92507812 55.49 55.08257812 55.46875 64.51757812 C34.01875 64.51757812 12.56875 64.51757812 -9.53125 64.51757812 C-9.61375 54.70007813 -9.69625 44.88257813 -9.78125 34.76757812 C-9.81766602 31.67157227 -9.85408203 28.57556641 -9.89160156 25.38574219 C-9.90328275 22.9349029 -9.91347592 20.48405586 -9.921875 18.03320312 C-9.94233887 16.75815918 -9.96280273 15.48311523 -9.98388672 14.16943359 C-9.98437012 12.95175293 -9.98485352 11.73407227 -9.98535156 10.47949219 C-9.99423401 9.42248108 -10.00311646 8.36546997 -10.01226807 7.27642822 C-8.99534413 1.44392237 -5.51575981 0.01802387 0 0 Z " fill="#000000" transform="translate(49.53125,167.482421875)"/>
<path d="M0 0 C14.72625 -0.12375 14.72625 -0.12375 29.75 -0.25 C32.84600586 -0.28641602 35.94201172 -0.32283203 39.13183594 -0.36035156 C41.58267523 -0.37203275 44.03352226 -0.38222592 46.484375 -0.390625 C47.75941895 -0.41108887 49.03446289 -0.43155273 50.34814453 -0.45263672 C51.5658252 -0.45312012 52.78350586 -0.45360352 54.03808594 -0.45410156 C55.09509705 -0.46298401 56.15210815 -0.47186646 57.2411499 -0.48101807 C60.73432062 0.12803214 61.87422737 1.20533109 64 4 C65.09751208 6.89707248 65.1355692 9.66905926 65.16113281 12.74926758 C65.17074036 13.68736771 65.1803479 14.62546783 65.19024658 15.59199524 C65.19449646 16.59933212 65.19874634 17.60666901 65.203125 18.64453125 C65.20882507 19.6876799 65.21452515 20.73082855 65.22039795 21.80558777 C65.22983874 24.0120645 65.23637827 26.21855527 65.24023438 28.42504883 C65.24993363 31.7894773 65.28096368 35.15329312 65.3125 38.51757812 C65.31903111 40.66405888 65.32428116 42.810544 65.328125 44.95703125 C65.3404718 45.95829544 65.3528186 46.95955963 65.36553955 47.99116516 C65.34726805 53.76014567 64.8340517 57.92656447 62 63 C59.31900947 64.34049527 57.26688794 64.1198052 54.26513672 64.11352539 C53.04721436 64.11340454 51.82929199 64.11328369 50.57446289 64.11315918 C49.28918701 64.10804321 48.00391113 64.10292725 46.6796875 64.09765625 C45.50220947 64.09664917 44.32473145 64.09564209 43.11157227 64.09460449 C38.69937165 64.08935964 34.28718488 64.07539846 29.875 64.0625 C20.01625 64.041875 10.1575 64.02125 0 64 C0 42.88 0 21.76 0 0 Z " fill="#000000" transform="translate(280,408)"/>
<path d="M0 0 C21.12 0 42.24 0 64 0 C64 21.12 64 42.24 64 64 C42.88 64 21.76 64 0 64 C0 42.88 0 21.76 0 0 Z " fill="#000000" transform="translate(200,408)"/>
<path d="M0 0 C21.12 0 42.24 0 64 0 C64 21.12 64 42.24 64 64 C42.88 64 21.76 64 0 64 C0 42.88 0 21.76 0 0 Z " fill="#000000" transform="translate(120,408)"/>
<path d="M0 0 C21.12 0 42.24 0 64 0 C64 21.12 64 42.24 64 64 C42.88 64 21.76 64 0 64 C0 42.88 0 21.76 0 0 Z " fill="#000000" transform="translate(120,328)"/>
<path d="M0 0 C21.12 0 42.24 0 64 0 C64 21.12 64 42.24 64 64 C42.88 64 21.76 64 0 64 C0 42.88 0 21.76 0 0 Z " fill="#000000" transform="translate(40,328)"/>
<path d="M0 0 C21.12 0 42.24 0 64 0 C64 21.12 64 42.24 64 64 C42.88 64 21.76 64 0 64 C0 42.88 0 21.76 0 0 Z " fill="#000000" transform="translate(40,248)"/>
<path d="M0 0 C2.5 1.5 2.5 1.5 4 4 C4.791013 8.02098277 4.62153384 10.96411027 2.5 14.5 C-1.03588973 16.62153384 -3.97901723 16.791013 -8 16 C-10.5 14.5 -10.5 14.5 -12 12 C-12.791013 7.97901723 -12.62153384 5.03588973 -10.5 1.5 C-6.96411027 -0.62153384 -4.02098277 -0.791013 0 0 Z " fill="#000000" transform="translate(444,248)"/>
<path d="M0 0 C2.5 1.5 2.5 1.5 4 4 C4.791013 8.02098277 4.62153384 10.96411027 2.5 14.5 C-1.03588973 16.62153384 -3.97901723 16.791013 -8 16 C-10.5 14.5 -10.5 14.5 -12 12 C-12.791013 7.97901723 -12.62153384 5.03588973 -10.5 1.5 C-6.96411027 -0.62153384 -4.02098277 -0.791013 0 0 Z " fill="#000000" transform="translate(260,64)"/>
</svg>
