<?xml version="1.0" encoding="UTF-8"?>
<svg version="1.1" xmlns="http://www.w3.org/2000/svg" width="32" height="32">
<path d="M0 0 C0.804375 0.185625 1.60875 0.37125 2.4375 0.5625 C5.53758876 0.94321265 7.48896483 0.84881772 10.5 0.375 C14.87303806 -0.18357293 17.2981078 0.41728451 21 3 C24.82884867 6.51840149 25.7549443 9.75704807 26.09765625 14.7890625 C25.89628933 19.34800965 23.87058914 22.05259418 20.875 25.3125 C16.9288796 27.6287011 13.56319007 28.31129916 9 28 C4.3675708 26.70741577 1.67020312 24.9748409 -1.0625 21 C-1.98962711 18.03319326 -2.19124543 16.81567101 -1 14 C1.25 13.625 1.25 13.625 4 14 C4.61875 14.99 5.2375 15.98 5.875 17 C6.57625 17.99 7.2775 18.98 8 20 C11.56607963 20.5630652 13.77452512 20.71156606 16.9375 18.875 C18.50422245 16.11019567 18.38976435 14.11811483 18 11 C16.33726664 8.46214383 15.26644989 8.0681616 12.3125 7.3125 C11.549375 7.209375 10.78625 7.10625 10 7 C10 7.99 10 8.98 10 10 C6.7 10 3.4 10 0 10 C0 6.7 0 3.4 0 0 Z " fill="#FFFFFF" transform="translate(4,2)"/>
</svg>
